<svg xmlns="http://www.w3.org/2000/svg" viewBox="0 0 16 16" height="16" width="16">
  <g xmlns="http://www.w3.org/2000/svg" transform="matrix(-1 0 0 -1 16 16)">
    <path d="M11.5306 8.53063L6.5306 13.5306C6.3897 13.6715 6.19861 13.7507 5.99935 13.7507C5.80009 13.7507 5.60899 13.6715 5.4681 13.5306C5.3272 13.3897 5.24805 13.1986 5.24805 12.9994C5.24805 12.8001 5.3272 12.609 5.4681 12.4681L9.93747 8L5.46935 3.53063C5.39958 3.46086 5.34424 3.37804 5.30649 3.28689C5.26873 3.19574 5.2493 3.09804 5.2493 2.99938C5.2493 2.90072 5.26873 2.80302 5.30649 2.71187C5.34424 2.62072 5.39958 2.53789 5.46935 2.46813C5.53911 2.39836 5.62194 2.34302 5.71309 2.30527C5.80424 2.26751 5.90194 2.24808 6.0006 2.24808C6.09926 2.24808 6.19696 2.26751 6.28811 2.30527C6.37926 2.34302 6.46208 2.39836 6.53185 2.46813L11.5318 7.46813C11.6017 7.53789 11.6571 7.62075 11.6948 7.71196C11.7326 7.80317 11.7519 7.90093 11.7518 7.99964C11.7517 8.09835 11.7321 8.19607 11.6941 8.28719C11.6562 8.3783 11.6006 8.46103 11.5306 8.53063Z" fill="#101828"/>
  </g>
</svg>
