<svg xmlns="http://www.w3.org/2000/svg" viewBox="0 0 750 500"><g id="freepik--background-complete--inject-188"><rect x="551.75" y="230.63" width="57.15" height="75.38" style="fill:#ebebeb"></rect><rect x="582.11" y="230.63" width="26.8" height="75.38" style="fill:#e0e0e0"></rect><rect x="563.74" y="240.83" width="5.14" height="12.48" style="fill:#f5f5f5"></rect><rect x="563.74" y="289.7" width="5.14" height="12.48" style="fill:#f5f5f5"></rect><path d="M582.11,258.22c0,.14-6.8.25-15.18.25s-15.18-.11-15.18-.25,6.8-.26,15.18-.26S582.11,258.08,582.11,258.22Z" style="fill:#f5f5f5"></path><rect x="563.74" y="265.45" width="5.14" height="12.48" style="fill:#f5f5f5"></rect><path d="M582.11,282.84c0,.14-6.8.25-15.18.25s-15.18-.11-15.18-.25,6.8-.26,15.18-.26S582.11,282.7,582.11,282.84Z" style="fill:#f5f5f5"></path><rect x="587.8" y="240.83" width="5.14" height="12.48" style="fill:#f5f5f5"></rect><rect x="598.95" y="240.83" width="5.14" height="12.48" style="fill:#f5f5f5"></rect><rect x="587.8" y="264.52" width="5.14" height="12.48" style="fill:#f5f5f5"></rect><rect x="598.95" y="264.52" width="5.14" height="12.48" style="fill:#f5f5f5"></rect><rect x="587.8" y="288.21" width="5.14" height="12.48" style="fill:#f5f5f5"></rect><rect x="598.95" y="288.21" width="5.14" height="12.48" style="fill:#f5f5f5"></rect><rect x="547.46" y="228" width="65.74" height="2.72" style="fill:#e0e0e0"></rect><path d="M609.31,231c0,.14-12.78.25-28.53.25s-28.53-.11-28.53-.25,12.77-.26,28.53-.26S609.31,230.84,609.31,231Z" style="fill:#ebebeb"></path><rect x="612.47" y="158.9" width="39.15" height="124.07" style="fill:#f5f5f5"></rect><rect x="632.05" y="158.9" width="19.57" height="123.73" style="fill:#ebebeb"></rect><rect x="616.94" y="146.72" width="13.82" height="12.18" style="fill:#f5f5f5"></rect><rect x="627.47" y="146.72" width="3.29" height="12.18" style="fill:#ebebeb"></rect><polyline points="609.21 158.9 609.21 158.19 652.77 158.19 652.77 158.9" style="fill:#e0e0e0"></polyline><rect x="620.2" y="164.21" width="3.31" height="6.99" style="fill:#fafafa"></rect><path d="M632.05,173.94c0,.08-4.38.14-9.79.14s-9.79-.06-9.79-.14,4.38-.13,9.79-.13S632.05,173.87,632.05,173.94Z" style="fill:#e0e0e0"></path><rect x="639.95" y="164.21" width="3.31" height="6.99" style="fill:#e0e0e0"></rect><path d="M651.79,173.94c0,.08-4.38.14-9.78.14s-9.79-.06-9.79-.14,4.38-.13,9.79-.13S651.79,173.87,651.79,173.94Z" style="fill:#e0e0e0"></path><rect x="639.95" y="178.09" width="3.31" height="6.99" style="fill:#e0e0e0"></rect><path d="M651.79,187.82c0,.07-4.38.13-9.78.13s-9.79-.06-9.79-.13,4.38-.14,9.79-.14S651.79,187.74,651.79,187.82Z" style="fill:#e0e0e0"></path><rect x="639.95" y="192.38" width="3.31" height="6.99" style="fill:#e0e0e0"></rect><path d="M651.79,202.11c0,.07-4.38.13-9.78.13s-9.79-.06-9.79-.13S636.6,202,642,202,651.79,202,651.79,202.11Z" style="fill:#e0e0e0"></path><rect x="639.95" y="206.67" width="3.31" height="6.99" style="fill:#e0e0e0"></rect><path d="M651.79,216.4c0,.07-4.38.13-9.78.13s-9.79-.06-9.79-.13,4.38-.14,9.79-.14S651.79,216.32,651.79,216.4Z" style="fill:#e0e0e0"></path><rect x="639.95" y="220.55" width="3.31" height="6.99" style="fill:#e0e0e0"></rect><path d="M651.79,230.28c0,.07-4.38.13-9.78.13s-9.79-.06-9.79-.13,4.38-.13,9.79-.13S651.79,230.21,651.79,230.28Z" style="fill:#e0e0e0"></path><rect x="639.95" y="234.49" width="3.31" height="6.99" style="fill:#e0e0e0"></rect><rect x="639.95" y="248.61" width="3.31" height="6.99" style="fill:#e0e0e0"></rect><path d="M651.79,244.22c0,.07-4.38.13-9.78.13s-9.79-.06-9.79-.13,4.38-.13,9.79-.13S651.79,244.15,651.79,244.22Z" style="fill:#e0e0e0"></path><rect x="620.2" y="178.3" width="3.31" height="6.99" style="fill:#fafafa"></rect><path d="M632.05,188c0,.07-4.38.13-9.79.13s-9.79-.06-9.79-.13,4.38-.14,9.79-.14S632.05,188,632.05,188Z" style="fill:#e0e0e0"></path><rect x="620.2" y="192.38" width="3.31" height="6.99" style="fill:#fafafa"></rect><path d="M632.05,202.11c0,.08-4.38.14-9.79.14s-9.79-.06-9.79-.14,4.38-.13,9.79-.13S632.05,202,632.05,202.11Z" style="fill:#e0e0e0"></path><rect x="620.2" y="206.47" width="3.31" height="6.99" style="fill:#fafafa"></rect><path d="M632.05,216.2c0,.07-4.38.13-9.79.13s-9.79-.06-9.79-.13,4.38-.14,9.79-.14S632.05,216.12,632.05,216.2Z" style="fill:#e0e0e0"></path><rect x="620.2" y="220.55" width="3.31" height="6.99" style="fill:#fafafa"></rect><path d="M632.05,230.28c0,.07-4.38.13-9.79.13s-9.79-.06-9.79-.13,4.38-.13,9.79-.13S632.05,230.21,632.05,230.28Z" style="fill:#e0e0e0"></path><rect x="620.2" y="234.64" width="3.31" height="6.99" style="fill:#fafafa"></rect><path d="M632.05,244.36c0,.08-4.38.14-9.79.14s-9.79-.06-9.79-.14,4.38-.13,9.79-.13S632.05,244.29,632.05,244.36Z" style="fill:#e0e0e0"></path><rect x="620.2" y="248.72" width="3.31" height="6.99" style="fill:#fafafa"></rect><polygon points="645.66 306.02 588.05 306.02 587.8 214.98 645.41 214.98 645.66 306.02" style="fill:#ebebeb"></polygon><rect x="616.6" y="214.98" width="28.8" height="91.04" style="fill:#e0e0e0"></rect><rect x="594.38" y="197.05" width="20.34" height="17.92" style="fill:#ebebeb"></rect><rect x="609.87" y="197.05" width="4.85" height="17.92" style="fill:#e0e0e0"></rect><rect x="583" y="213.93" width="64.09" height="1.05" style="fill:#e0e0e0"></rect><rect x="599.17" y="222.79" width="4.88" height="10.28" style="fill:#fff"></rect><path d="M616.6,237.11c0,.11-6.45.2-14.4.2s-14.4-.09-14.4-.2,6.45-.19,14.4-.19S616.6,237,616.6,237.11Z" style="fill:#e0e0e0"></path><rect x="628.23" y="222.79" width="4.88" height="10.28" style="fill:#fff"></rect><path d="M645.66,237.11c0,.11-6.45.2-14.4.2s-14.41-.09-14.41-.2,6.45-.19,14.41-.19S645.66,237,645.66,237.11Z" style="fill:#ebebeb"></path><rect x="628.23" y="243.21" width="4.88" height="10.28" style="fill:#fff"></rect><path d="M645.66,257.53c0,.1-6.45.19-14.4.19s-14.41-.09-14.41-.19,6.45-.2,14.41-.2S645.66,257.42,645.66,257.53Z" style="fill:#ebebeb"></path><rect x="628.23" y="264.24" width="4.88" height="10.28" style="fill:#fff"></rect><path d="M645.66,278.56c0,.1-6.45.19-14.4.19s-14.41-.09-14.41-.19,6.45-.2,14.41-.2S645.66,278.45,645.66,278.56Z" style="fill:#ebebeb"></path><rect x="628.23" y="285.27" width="4.88" height="10.28" style="fill:#fff"></rect><path d="M645.66,299.58c0,.11-6.45.2-14.4.2s-14.41-.09-14.41-.2,6.45-.19,14.41-.19S645.66,299.48,645.66,299.58Z" style="fill:#ebebeb"></path><rect x="599.17" y="243.52" width="4.88" height="10.28" style="fill:#fff"></rect><path d="M616.6,257.84c0,.11-6.45.19-14.4.19s-14.4-.08-14.4-.19,6.45-.2,14.4-.2S616.6,257.73,616.6,257.84Z" style="fill:#e0e0e0"></path><rect x="599.17" y="264.24" width="4.88" height="10.28" style="fill:#fff"></rect><path d="M616.6,278.56c0,.11-6.45.2-14.4.2s-14.4-.09-14.4-.2,6.45-.19,14.4-.19S616.6,278.45,616.6,278.56Z" style="fill:#e0e0e0"></path><rect x="599.17" y="284.97" width="4.88" height="10.28" style="fill:#fff"></rect><path d="M616.6,299.29c0,.11-6.45.19-14.4.19s-14.4-.08-14.4-.19,6.45-.2,14.4-.2S616.6,299.18,616.6,299.29Z" style="fill:#e0e0e0"></path><path d="M600.29,117c.72-5.23-6.66-9.53-12.21-10-2.64-.21-5.39.19-7.89-.68-5.43-1.89-7.6-8.9-12.89-11.14-4-1.67-8.52-.18-12.36,1.75s-7.63,4.36-11.92,4.64c-3.73.24-7.78-1.15-11,.68-2.44,1.35-3.71,4.16-6,5.81s-5.06,2-7.78,2.11-5.53.17-8,1.31-4.53,3.75-4,6.43Z" style="fill:#ebebeb"></path><path d="M628.94,82.47c.49-3.58-4.56-6.52-8.35-6.82-1.81-.15-3.69.13-5.4-.47-3.71-1.29-5.19-6.09-8.81-7.61-2.71-1.15-5.83-.13-8.45,1.19s-5.22,3-8.15,3.17c-2.55.17-5.32-.78-7.56.47-1.66.92-2.53,2.84-4.06,4a9.67,9.67,0,0,1-5.32,1.44,14.85,14.85,0,0,0-5.48.9c-1.69.77-3.1,2.57-2.74,4.39Z" style="fill:#f5f5f5"></path><rect x="252.11" y="140.9" width="116.43" height="104.16" style="fill:#fafafa"></rect><path d="M368.53,245.06s0-.67,0-1.93,0-3.15,0-5.58c0-4.89,0-12-.07-21.15,0-18.2-.08-44.2-.13-75.5l.26.26-116.41.05h0l.31-.31c0,37.89,0,73.55,0,104.16l-.27-.27,84.2.13,23.75.08,6.29,0H368l.56,0-.53,0h-1.59l-6.23,0-23.69.08-84.38.13h-.28v-.27c0-30.61,0-66.27,0-104.16v-.31h.33l116.41,0h.27v.27c-.06,31.37-.11,57.43-.14,75.67,0,9.08-.05,16.21-.07,21.08,0,2.42,0,4.27,0,5.53S368.53,245.06,368.53,245.06Z" style="fill:#e0e0e0"></path><path d="M296.75,159.41c0,.17-6.13.31-13.69.31s-13.68-.14-13.68-.31,6.12-.32,13.68-.32S296.75,159.23,296.75,159.41Z" style="fill:#e0e0e0"></path><path d="M346.08,167.23c0,.17-16.84.31-37.6.31s-37.6-.14-37.6-.31,16.83-.31,37.6-.31S346.08,167.05,346.08,167.23Z" style="fill:#e0e0e0"></path><rect x="269.58" y="180.47" width="4.91" height="4.91" style="fill:#e0e0e0"></rect><rect x="281.65" y="180.47" width="4.9" height="4.91" style="fill:#e0e0e0"></rect><rect x="293.95" y="180.25" width="4.9" height="4.9" style="fill:#e0e0e0"></rect><rect x="305.8" y="180.47" width="4.9" height="4.91" style="fill:#e0e0e0"></rect><rect x="317.87" y="180.47" width="4.91" height="4.91" style="fill:#e0e0e0"></rect><rect x="329.95" y="180.47" width="4.9" height="4.91" style="fill:#e0e0e0"></rect><rect x="342.02" y="180.47" width="4.9" height="4.91" style="fill:#ebebeb"></rect><rect x="269.58" y="190.9" width="4.91" height="4.9" style="fill:#ebebeb"></rect><rect x="281.65" y="190.9" width="4.9" height="4.9" style="fill:#e0e0e0"></rect><rect x="293.72" y="190.9" width="4.91" height="4.9" style="fill:#ebebeb"></rect><rect x="305.8" y="190.9" width="4.9" height="4.9" style="fill:#e0e0e0"></rect><rect x="317.87" y="190.9" width="4.91" height="4.9" style="fill:#e0e0e0"></rect><rect x="330.17" y="190.68" width="4.9" height="4.91" style="fill:#e0e0e0"></rect><rect x="342.02" y="190.9" width="4.9" height="4.9" style="fill:#e0e0e0"></rect><rect x="269.58" y="201.33" width="4.91" height="4.9" style="fill:#e0e0e0"></rect><rect x="281.87" y="201.11" width="4.91" height="4.91" style="fill:#e0e0e0"></rect><rect x="293.72" y="201.33" width="4.91" height="4.9" style="fill:#e0e0e0"></rect><rect x="305.8" y="201.33" width="4.9" height="4.9" style="fill:#ebebeb"></rect><rect x="317.87" y="201.33" width="4.91" height="4.9" style="fill:#e0e0e0"></rect><rect x="329.95" y="201.33" width="4.9" height="4.9" style="fill:#e0e0e0"></rect><rect x="342.02" y="201.33" width="4.9" height="4.9" style="fill:#e0e0e0"></rect><rect x="269.58" y="211.76" width="4.91" height="4.91" style="fill:#e0e0e0"></rect><rect x="281.65" y="211.76" width="4.9" height="4.91" style="fill:#e0e0e0"></rect><rect x="293.72" y="211.76" width="4.91" height="4.91" style="fill:#e0e0e0"></rect><rect x="306.02" y="211.54" width="4.9" height="4.9" style="fill:#e0e0e0"></rect><rect x="317.87" y="211.76" width="4.91" height="4.91" style="fill:#e0e0e0"></rect><rect x="329.95" y="211.76" width="4.9" height="4.91" style="fill:#ebebeb"></rect><rect x="342.02" y="211.76" width="4.9" height="4.91" style="fill:#e0e0e0"></rect><rect x="269.58" y="222.19" width="4.91" height="4.91" style="fill:#e0e0e0"></rect><rect x="281.65" y="222.19" width="4.9" height="4.91" style="fill:#ebebeb"></rect><rect x="293.72" y="222.19" width="4.91" height="4.91" style="fill:#e0e0e0"></rect><rect x="305.8" y="222.19" width="4.9" height="4.91" style="fill:#e0e0e0"></rect><rect x="317.87" y="222.19" width="4.91" height="4.91" style="fill:#e0e0e0"></rect><rect x="330.17" y="221.96" width="4.9" height="4.9" style="fill:#e0e0e0"></rect><rect x="342.02" y="222.19" width="4.9" height="4.91" style="fill:#e0e0e0"></rect><rect x="175.63" y="159.59" width="20.5" height="35.33" transform="translate(371.75 354.52) rotate(180)" style="fill:#ebebeb"></rect><rect x="118.44" y="151.38" width="16.19" height="44.1" transform="translate(253.07 346.87) rotate(180)" style="fill:#ebebeb"></rect><path d="M118.26,154.57a68,68,0,0,1,8.26-.25,68.1,68.1,0,0,1,8.27.25,68.1,68.1,0,0,1-8.27.25A68,68,0,0,1,118.26,154.57Z" style="fill:#fafafa"></path><path d="M119.15,156.66a64.51,64.51,0,0,1,7.82-.24,64.51,64.51,0,0,1,7.82.24,60.93,60.93,0,0,1-7.82.25A60.93,60.93,0,0,1,119.15,156.66Z" style="fill:#fafafa"></path><path d="M126.07,186.79c-.13,0-.24-5.84-.24-13s.11-13.05.24-13.05.25,5.85.25,13.05S126.21,186.79,126.07,186.79Z" style="fill:#fafafa"></path><path d="M118.44,190.82a66.35,66.35,0,0,1,7.93-.24,66.24,66.24,0,0,1,7.92.24,62.56,62.56,0,0,1-7.92.25A62.66,62.66,0,0,1,118.44,190.82Z" style="fill:#fafafa"></path><path d="M118.44,192.71a69.73,69.73,0,0,1,8.13-.24,69.62,69.62,0,0,1,8.12.24,65.76,65.76,0,0,1-8.12.25A65.86,65.86,0,0,1,118.44,192.71Z" style="fill:#fafafa"></path><rect x="134.62" y="146.61" width="13" height="48.87" transform="translate(282.24 342.1) rotate(180)" style="fill:#e0e0e0"></rect><path d="M134.54,169.06a13.56,13.56,0,0,1,2,1.39l4.69,3.56,4.69,3.57a12.35,12.35,0,0,1,1.88,1.57,12.22,12.22,0,0,1-2.09-1.29c-1.25-.85-2.94-2.06-4.78-3.46s-3.45-2.7-4.61-3.68A11.67,11.67,0,0,1,134.54,169.06Z" style="fill:#fafafa"></path><path d="M134.48,161.41a71.83,71.83,0,0,1,6.66,5.38,73.18,73.18,0,0,1,6.33,5.75,75.18,75.18,0,0,1-6.65-5.38A74.42,74.42,0,0,1,134.48,161.41Z" style="fill:#fafafa"></path><rect x="78.11" y="148.96" width="6.22" height="46.56" transform="translate(162.44 344.48) rotate(180)" style="fill:#ebebeb"></rect><path d="M78.37,155.31a7.54,7.54,0,0,0,2.91.29,7.54,7.54,0,0,0,2.91-.29,7.43,7.43,0,0,0-2.91-.3A7.43,7.43,0,0,0,78.37,155.31Z" style="fill:#fafafa"></path><path d="M78.24,154.29a7.43,7.43,0,0,0,2.91.3,7.5,7.5,0,0,0,2.92-.3,7.62,7.62,0,0,0-2.92-.29A7.54,7.54,0,0,0,78.24,154.29Z" style="fill:#fafafa"></path><path d="M78.37,191.92a7.54,7.54,0,0,0,2.91.29,7.54,7.54,0,0,0,2.91-.29,7.54,7.54,0,0,0-2.91-.29A7.54,7.54,0,0,0,78.37,191.92Z" style="fill:#fafafa"></path><path d="M78.24,190.91a7.54,7.54,0,0,0,2.91.29,7.62,7.62,0,0,0,2.92-.29,7.28,7.28,0,0,0-2.92-.3A7.22,7.22,0,0,0,78.24,190.91Z" style="fill:#fafafa"></path><path d="M81.41,184.83c.16,0,.29-5.34.29-11.91S81.57,161,81.41,161s-.3,5.33-.3,11.91S81.25,184.83,81.41,184.83Z" style="fill:#fafafa"></path><rect x="105.98" y="148.67" width="12.44" height="46.56" transform="translate(224.4 343.89) rotate(180)" style="fill:#e0e0e0"></rect><path d="M114.92,195.82a.94.94,0,0,0,.14-.26c.09-.17.21-.43.36-.77a13.67,13.67,0,0,0,.9-3.16,8.21,8.21,0,0,0-.72-5.12,6.87,6.87,0,0,0-2.21-2.43,5.09,5.09,0,0,0-3.58-.85,3.78,3.78,0,0,0-1.86.86,2.45,2.45,0,0,0-.89,2,2.85,2.85,0,0,0,1.07,2,3.79,3.79,0,0,0,2.12.9,5.61,5.61,0,0,0,4.41-1.6,7.06,7.06,0,0,0,2.18-4.47,11.74,11.74,0,0,0-.64-5.2,9.56,9.56,0,0,0-3-4.54,5,5,0,0,0-2.69-1.05,3.47,3.47,0,0,0-2.79,1,2.25,2.25,0,0,0-.64,1.45,2.65,2.65,0,0,0,.43,1.53,4.06,4.06,0,0,0,2.51,1.71,5.86,5.86,0,0,0,5.48-1.84,9.14,9.14,0,0,0,2.13-5.24,12.88,12.88,0,0,0-.53-5.43,7.49,7.49,0,0,0-3.22-4.13,5.5,5.5,0,0,0-4.94-.52,2.59,2.59,0,0,0-1.6,1.9,3,3,0,0,0,.56,2.34,3.86,3.86,0,0,0,4.19,1.11,7.25,7.25,0,0,0,3.31-2.35,10.6,10.6,0,0,0,2.48-6.38,10.29,10.29,0,0,0-3.11-7.7,8.27,8.27,0,0,0-.64-.55l-.24-.17a12.08,12.08,0,0,1,2.63,3.46A10.05,10.05,0,0,1,115,163.31a6.86,6.86,0,0,1-3.12,2.19,3.43,3.43,0,0,1-3.67-1,2.49,2.49,0,0,1-.46-2,2.06,2.06,0,0,1,1.32-1.52,5,5,0,0,1,4.46.51,7,7,0,0,1,3,3.85,12.53,12.53,0,0,1,.49,5.19,8.62,8.62,0,0,1-2,4.91,5.28,5.28,0,0,1-4.92,1.66,3.43,3.43,0,0,1-2.14-1.45,1.78,1.78,0,0,1,.13-2.27,3,3,0,0,1,2.34-.82,4.51,4.51,0,0,1,2.37.94,9.07,9.07,0,0,1,2.87,4.26,11.47,11.47,0,0,1,.64,4.95,6.54,6.54,0,0,1-2,4.16,5.16,5.16,0,0,1-4,1.5,3,3,0,0,1-2.79-2.41,2,2,0,0,1,.73-1.62,3.32,3.32,0,0,1,1.64-.77,4.78,4.78,0,0,1,3.31.75,6.55,6.55,0,0,1,2.12,2.28,8.08,8.08,0,0,1,.79,4.93,15.07,15.07,0,0,1-.79,3.15C115.05,195.45,114.9,195.81,114.92,195.82Z" style="fill:#fafafa"></path><rect x="84.23" y="152.84" width="21.58" height="42.4" transform="translate(190.04 348.08) rotate(180)" style="fill:#fafafa"></rect><path d="M85,159.89a94.35,94.35,0,0,0,10.44.29,94.46,94.46,0,0,0,10.45-.29,92.87,92.87,0,0,0-10.45-.3A92.76,92.76,0,0,0,85,159.89Z" style="fill:#e0e0e0"></path><path d="M84.7,163.1a92,92,0,0,0,10.31.29,91.85,91.85,0,0,0,10.31-.29A91.85,91.85,0,0,0,95,162.81,92,92,0,0,0,84.7,163.1Z" style="fill:#e0e0e0"></path><path d="M84,190.45a101.94,101.94,0,0,0,10.86.29,102.1,102.1,0,0,0,10.86-.29,102.1,102.1,0,0,0-10.86-.29A101.94,101.94,0,0,0,84,190.45Z" style="fill:#e0e0e0"></path><path d="M84.3,186.67a96.85,96.85,0,0,0,10.58.29,96.85,96.85,0,0,0,10.58-.29,96.85,96.85,0,0,0-10.58-.29A96.85,96.85,0,0,0,84.3,186.67Z" style="fill:#e0e0e0"></path><rect x="147.61" y="148.37" width="12.44" height="46.55" transform="translate(307.66 343.29) rotate(180)" style="fill:#ebebeb"></rect><path d="M156.55,195.52a1.16,1.16,0,0,0,.15-.25,8.46,8.46,0,0,0,.35-.78,13.12,13.12,0,0,0,.91-3.16,8.3,8.3,0,0,0-.73-5.12,6.87,6.87,0,0,0-2.21-2.43,5.12,5.12,0,0,0-3.58-.85,3.75,3.75,0,0,0-1.85.86,2.42,2.42,0,0,0-.89,2,2.82,2.82,0,0,0,1.06,2,3.86,3.86,0,0,0,2.12.9,5.65,5.65,0,0,0,4.41-1.61,7.12,7.12,0,0,0,2.19-4.47,11.92,11.92,0,0,0-.65-5.2,9.49,9.49,0,0,0-3.05-4.53,5,5,0,0,0-2.68-1.06,3.49,3.49,0,0,0-2.8,1,2.36,2.36,0,0,0-.64,1.46,2.75,2.75,0,0,0,.43,1.52,4,4,0,0,0,2.51,1.71,5.86,5.86,0,0,0,5.48-1.83,9.21,9.21,0,0,0,2.14-5.25,13,13,0,0,0-.54-5.43,7.48,7.48,0,0,0-3.21-4.13,5.5,5.5,0,0,0-4.94-.52,2.58,2.58,0,0,0-1.61,1.9,3,3,0,0,0,.56,2.34,3.88,3.88,0,0,0,4.2,1.11,7.22,7.22,0,0,0,3.3-2.34,10.56,10.56,0,0,0,2.48-6.39,10.29,10.29,0,0,0-3.1-7.69,6.77,6.77,0,0,0-.65-.56,1.33,1.33,0,0,0-.24-.17,11.93,11.93,0,0,1,2.64,3.47,10,10,0,0,1,1,4.94,10.3,10.3,0,0,1-2.46,6.13,6.89,6.89,0,0,1-3.12,2.18,3.44,3.44,0,0,1-3.68-1,2.57,2.57,0,0,1-.46-2,2.1,2.1,0,0,1,1.32-1.52,5,5,0,0,1,4.46.51,6.9,6.9,0,0,1,3,3.85,12.37,12.37,0,0,1,.5,5.19,8.63,8.63,0,0,1-2,4.91,5.28,5.28,0,0,1-4.92,1.66,3.46,3.46,0,0,1-2.14-1.45,1.78,1.78,0,0,1,.14-2.27,2.91,2.91,0,0,1,2.33-.81,4.45,4.45,0,0,1,2.38.93,9,9,0,0,1,2.86,4.26,11.32,11.32,0,0,1,.64,4.95,6.54,6.54,0,0,1-2,4.16,5.15,5.15,0,0,1-4,1.5,3,3,0,0,1-2.78-2.41,2,2,0,0,1,.73-1.62,3.38,3.38,0,0,1,1.63-.77,4.78,4.78,0,0,1,3.31.75,6.46,6.46,0,0,1,2.12,2.28,8.08,8.08,0,0,1,.79,4.93,14.46,14.46,0,0,1-.79,3.15C156.69,195.15,156.53,195.51,156.55,195.52Z" style="fill:#fafafa"></path><rect x="60.82" y="146.02" width="17.28" height="48.9" transform="translate(138.93 340.94) rotate(180)" style="fill:#e0e0e0"></rect><rect x="160.05" y="151.38" width="16.17" height="43.54" transform="translate(336.27 346.31) rotate(180)" style="fill:#e0e0e0"></rect><path d="M176.62,173.1a13.86,13.86,0,0,0,2.57,1.82,9,9,0,0,0,3.26.91,8.4,8.4,0,0,0,4-.71c1.37-.58,2.62-1.33,3.88-1.76a6.15,6.15,0,0,1,3.53-.33,3.82,3.82,0,0,1,2,1.24,1.47,1.47,0,0,1,.4.78s-.16-.27-.54-.65a3.9,3.9,0,0,0-2-1,6,6,0,0,0-3.29.41c-1.21.44-2.43,1.19-3.85,1.8a8.56,8.56,0,0,1-4.26.7,8.92,8.92,0,0,1-3.38-1.05,7.43,7.43,0,0,1-1.88-1.44A2.38,2.38,0,0,1,176.62,173.1Z" style="fill:#fafafa"></path><path d="M176.26,177.41a13.42,13.42,0,0,0,2.57,1.82,9,9,0,0,0,3.25.91,8.42,8.42,0,0,0,4-.71c1.36-.58,2.61-1.33,3.88-1.77a6.19,6.19,0,0,1,3.52-.32,3.81,3.81,0,0,1,2,1.24,1.57,1.57,0,0,1,.4.78c-.05,0-.17-.27-.55-.65a3.82,3.82,0,0,0-2-1,6,6,0,0,0-3.3.41c-1.2.44-2.43,1.19-3.84,1.8a8.6,8.6,0,0,1-4.27.7,8.86,8.86,0,0,1-3.37-1.05,7.25,7.25,0,0,1-1.88-1.44A2.38,2.38,0,0,1,176.26,177.41Z" style="fill:#fafafa"></path><path d="M176.53,163.46c0-.13,4.45-.24,9.94-.24s9.94.11,9.94.24a98.33,98.33,0,0,1-9.94.25A98.33,98.33,0,0,1,176.53,163.46Z" style="fill:#fafafa"></path><path d="M169.2,158.4a2.38,2.38,0,0,0-1.4-.12,1.69,1.69,0,0,0-1.1.91,1.57,1.57,0,0,0,2,1.93,1.68,1.68,0,0,0,.86-1.13,2.22,2.22,0,0,0-.17-1.4s.16.06.31.3a1.8,1.8,0,0,1,.21,1.17,2,2,0,0,1-1,1.47,2,2,0,0,1-2.62-2.53,2,2,0,0,1,1.43-1.06,1.77,1.77,0,0,1,1.17.16C169.14,158.24,169.22,158.38,169.2,158.4Z" style="fill:#fafafa"></path><path d="M168.16,190.56c-.14,0-.25-6.1-.25-13.63s.11-13.63.25-13.63.24,6.1.24,13.63S168.29,190.56,168.16,190.56Z" style="fill:#fafafa"></path><rect x="45.7" y="194.67" width="167.31" height="9.55" style="fill:#ebebeb"></rect><rect x="198.41" y="194.67" width="14.61" height="9.55" style="fill:#e0e0e0"></rect><polygon points="140.55 448.2 140.55 479.79 186.74 479.79 237.69 479.79 237.69 448.2 140.55 448.2" style="fill:#f5f5f5"></polygon><polygon points="136.47 439.37 136.47 448.2 241.09 448.2 241.09 439.37 186.74 439.37 136.47 439.37" style="fill:#e0e0e0"></polygon><polygon points="188.78 479.79 237.69 479.79 237.69 448.2 241.09 448.2 241.09 439.37 186.74 439.37 186.74 447.39 188.78 479.79" style="fill:#e0e0e0"></polygon><rect x="154.13" y="453.3" width="19.7" height="4.76" style="fill:#e0e0e0"></rect><rect x="151.6" y="464" width="25.3" height="10.04" style="fill:#fff"></rect><polygon points="155.49 407.82 155.49 439.42 201.69 439.42 252.64 439.42 252.64 407.82 155.49 407.82" style="fill:#f5f5f5"></polygon><polygon points="151.42 398.99 151.42 407.82 256.04 407.82 256.04 398.99 201.69 398.99 151.42 398.99" style="fill:#e0e0e0"></polygon><polygon points="203.73 439.42 252.64 439.42 252.64 407.82 256.04 407.82 256.04 398.99 201.69 398.99 201.69 407.01 203.73 439.42" style="fill:#e0e0e0"></polygon><rect x="169.08" y="412.92" width="19.7" height="4.76" style="fill:#e0e0e0"></rect><rect x="166.55" y="423.62" width="25.3" height="10.04" style="fill:#fff"></rect><circle cx="360.84" cy="84.09" r="32.81" transform="translate(141.2 382.48) rotate(-66.76)" style="fill:#e0e0e0"></circle><path d="M360.76,56.66a9.12,9.12,0,0,1,.21,2.76,9.12,9.12,0,0,1-.21,2.76,9.12,9.12,0,0,1-.21-2.76A9.12,9.12,0,0,1,360.76,56.66Z" style="fill:#fafafa"></path><path d="M375.71,61.09a9,9,0,0,1-1.77,2.07,8.73,8.73,0,0,1-2.07,1.77,9,9,0,0,1,1.77-2.07A9,9,0,0,1,375.71,61.09Z" style="fill:#fafafa"></path><path d="M384.45,70.64a11,11,0,0,1-2.26,1.51,11.24,11.24,0,0,1-2.38,1.31,12.22,12.22,0,0,1,4.64-2.82Z" style="fill:#fafafa"></path><path d="M389.58,84.81a32.24,32.24,0,0,1-7.52,0,33.77,33.77,0,0,1,7.52,0Z" style="fill:#fafafa"></path><path d="M337.46,84.31a30.11,30.11,0,0,1-7.1,0,30.11,30.11,0,0,1,7.1,0Z" style="fill:#fafafa"></path><path d="M341.14,94.86a15.25,15.25,0,0,1-2.68,2.44,16,16,0,0,1-2.95,2.1A15.91,15.91,0,0,1,338.19,97,16.38,16.38,0,0,1,341.14,94.86Z" style="fill:#fafafa"></path><path d="M350.24,103a26.58,26.58,0,0,1-1.83,3.17,23.25,23.25,0,0,1-1.94,3.09,12.23,12.23,0,0,1,1.58-3.31A11.9,11.9,0,0,1,350.24,103Z" style="fill:#fafafa"></path><path d="M360.76,113.55a16.77,16.77,0,0,1-.21-3.76,16.7,16.7,0,0,1,.21-3.76,16.7,16.7,0,0,1,.21,3.76A16.77,16.77,0,0,1,360.76,113.55Z" style="fill:#fafafa"></path><path d="M377,108.54a11.14,11.14,0,0,1-3.1-2.12,11,11,0,0,1-2.52-2.78,32.57,32.57,0,0,1,2.8,2.46A33.61,33.61,0,0,1,377,108.54Z" style="fill:#fafafa"></path><path d="M384.57,100.35a13,13,0,0,1-2.49-2.19,13.34,13.34,0,0,1-2.19-2.49,13.34,13.34,0,0,1,2.49,2.19A13.34,13.34,0,0,1,384.57,100.35Z" style="fill:#fafafa"></path><path d="M340.8,74.21a10,10,0,0,1-2.2-1.9,10,10,0,0,1-1.9-2.2,10,10,0,0,1,2.2,1.9A10,10,0,0,1,340.8,74.21Z" style="fill:#fafafa"></path><path d="M350.18,64.32A9.65,9.65,0,0,1,348,62.47a9.71,9.71,0,0,1-1.86-2.15,9.41,9.41,0,0,1,2.16,1.85A9.71,9.71,0,0,1,350.18,64.32Z" style="fill:#fafafa"></path><path d="M360.84,64.33a5.67,5.67,0,0,1,.1,1.28c0,.94.05,2.12.09,3.52,0,3,.07,7.07.07,11.6v3.42l0,.06c-1.73,3.3-3.25,6.18-4.36,8.22l-1.33,2.4a4,4,0,0,1-.54.84,4.74,4.74,0,0,1,.38-.92l1.19-2.47c1-2.09,2.5-5,4.21-8.31l0,.12c0-1.09,0-2.21,0-3.36,0-4.53,0-8.63.08-11.6,0-1.4.06-2.58.08-3.52A6.53,6.53,0,0,1,360.84,64.33Z" style="fill:#fafafa"></path><path d="M124.75,257.94v27.42h-4.3v3h4.3v18.35H205.1V290h-5.95v-3.63h5.95V280.9h2.65v-2.48H204.6V257.94Z" style="fill:#f5f5f5"></path><polygon points="183.76 258.02 183.76 306.38 205.1 306.38 205.1 289.69 199.15 289.69 199.15 286.36 205.1 286.47 205.1 281.01 207.8 281.02 207.75 278.2 204.6 278.11 204.6 257.94 183.76 258.02" style="fill:#e0e0e0"></polygon><path d="M185.28,288c0,.16-14.54.3-32.47.3s-32.47-.14-32.47-.3,14.54-.31,32.47-.31S185.28,287.78,185.28,288Z" style="fill:#e0e0e0"></path><path d="M185.28,285.16c0,.17-14.54.3-32.47.3s-32.47-.13-32.47-.3,14.54-.3,32.47-.3S185.28,285,185.28,285.16Z" style="fill:#e0e0e0"></path><path d="M189.46,277.66c0,.17-14.54.31-32.48.31s-32.47-.14-32.47-.31,14.54-.3,32.47-.3S189.46,277.5,189.46,277.66Z" style="fill:#e0e0e0"></path><path d="M189.86,298.09c0,.17-14.54.3-32.47.3s-32.48-.13-32.48-.3,14.54-.3,32.48-.3S189.86,297.92,189.86,298.09Z" style="fill:#e0e0e0"></path><rect x="340.77" y="251.58" width="71.5" height="5.55" style="fill:#ebebeb"></rect><rect x="392.63" y="251.58" width="19.63" height="5.55" style="fill:#e0e0e0"></rect><path d="M331.69,257.12v25h-3.92v2.71h3.92v16.72H404.9V286.32h-5.43V283h5.43v-5h2.41v-2.26h-2.86V257.12Z" style="fill:#f5f5f5"></path><polygon points="385.46 257.2 385.46 301.26 404.9 301.26 404.9 286.05 399.47 286.05 399.47 283.01 404.9 283.01 404.9 278.04 407.31 278.04 407.31 275.5 404.44 275.5 404.44 257.12 385.46 257.2" style="fill:#e0e0e0"></polygon><path d="M386.84,284.46c0,.15-13.25.28-29.58.28s-29.59-.13-29.59-.28,13.24-.28,29.59-.28S386.84,284.31,386.84,284.46Z" style="fill:#e0e0e0"></path><path d="M386.84,281.92c0,.15-13.25.28-29.58.28s-29.59-.13-29.59-.28,13.24-.28,29.59-.28S386.84,281.77,386.84,281.92Z" style="fill:#e0e0e0"></path><path d="M390.64,275.09c0,.15-13.25.28-29.58.28s-29.59-.13-29.59-.28,13.24-.28,29.59-.28S390.64,274.94,390.64,275.09Z" style="fill:#e0e0e0"></path><path d="M391,293.7c0,.16-13.25.28-29.59.28s-29.59-.12-29.59-.28,13.25-.27,29.59-.27S391,293.55,391,293.7Z" style="fill:#e0e0e0"></path><path d="M338.93,207.16v25H335v2.72h3.92v16.72h73.21V236.36h-5.42v-3.31h5.42v-5h2.41v-2.26h-2.86V207.16Z" style="fill:#f5f5f5"></path><polygon points="392.7 207.24 392.7 251.3 412.14 251.3 412.14 236.08 406.72 236.08 406.72 233.05 412.14 233.15 412.14 228.18 414.6 228.18 414.55 225.62 411.69 225.54 411.69 207.16 392.7 207.24" style="fill:#e0e0e0"></polygon><path d="M394.08,234.5c0,.15-13.24.27-29.58.27s-29.59-.12-29.59-.27,13.24-.28,29.59-.28S394.08,234.34,394.08,234.5Z" style="fill:#e0e0e0"></path><path d="M394.08,232c0,.15-13.24.28-29.58.28s-29.59-.13-29.59-.28,13.24-.28,29.59-.28S394.08,231.81,394.08,232Z" style="fill:#e0e0e0"></path><path d="M397.88,225.13c0,.15-13.24.28-29.58.28s-29.59-.13-29.59-.28,13.25-.28,29.59-.28S397.88,225,397.88,225.13Z" style="fill:#e0e0e0"></path><path d="M398.25,243.74c0,.15-13.25.28-29.59.28s-29.58-.13-29.58-.28,13.24-.28,29.58-.28S398.25,243.59,398.25,243.74Z" style="fill:#e0e0e0"></path><rect x="335.97" y="301.28" width="71.5" height="5.55" style="fill:#ebebeb"></rect><rect x="387.84" y="301.28" width="19.63" height="5.55" style="fill:#e0e0e0"></rect></g><g id="freepik--Floor--inject-188"><path d="M725.88,479.27c0,.14-157.11.26-350.86.26s-350.9-.12-350.9-.26S181.19,479,375,479,725.88,479.12,725.88,479.27Z" style="fill:#263238"></path></g><g id="freepik--Door--inject-188"><rect x="495.48" y="53.13" width="19.61" height="425.89" style="fill:#455a64"></rect><rect x="495.48" y="35.5" width="226.27" height="17.63" style="fill:#455a64"></rect><path d="M699.59,53.43c0,.15-41.37.27-92.39.27s-92.39-.12-92.39-.27,41.36-.27,92.39-.27S699.59,53.28,699.59,53.43Z" style="fill:#263238"></path><rect x="702.14" y="53.13" width="19.61" height="425.89" style="fill:#455a64"></rect><path d="M722.22,36c.1.11-4.3,4.11-9.83,8.93s-10.09,8.64-10.18,8.53,4.3-4.11,9.83-8.94S722.13,35.85,722.22,36Z" style="fill:#263238"></path><path d="M515.09,53.13c-.1.11-4.65-3.55-10.18-8.17s-9.93-8.47-9.84-8.59,4.65,3.55,10.18,8.18S515.18,53,515.09,53.13Z" style="fill:#263238"></path><polygon points="644.98 44.7 644.98 491.57 652.85 491.57 702.14 479.02 702.14 53.13 652.28 44.7 644.98 44.7" style="fill:#455a64"></polygon><path d="M657,241.18v74.35l3.26-3.26V243.13Z" style="fill:#e0e0e0"></path><rect x="644.98" y="44.7" width="7.18" height="446.88" style="fill:#263238"></rect><path d="M702.14,477.42s0-.42,0-1.22,0-2,0-3.58c0-3.15,0-7.79-.05-13.75,0-12,0-29.23-.08-50.58,0-42.72-.05-101.71-.08-166.87,0-75.26.08-142.28.1-184.72l.13.16-36.74-8.92-9.74-2.39-2.51-.63-.84-.22s.29,0,.85.18l2.52.58,9.76,2.31,36.77,8.77.13,0v.13c0,42.44.06,109.46.1,184.72,0,65.16-.06,124.15-.08,166.87,0,21.35-.06,38.62-.08,50.58,0,6,0,10.6,0,13.75,0,1.56,0,2.76,0,3.58S702.14,477.42,702.14,477.42Z" style="fill:#263238"></path><path d="M674.65,271.08c-.23,5.73-.71,18.05-.71,18.05h-4.06V273.37l-11.71-.1-.15-5.59,13.89.43A2.85,2.85,0,0,1,674.65,271.08Z" style="fill:#e0e0e0"></path></g><g id="freepik--Character--inject-188"><path d="M586.15,170.26S581,159.8,581,157.61l1.43-13s.9-.66,1.88,1.55a7.36,7.36,0,0,1,.27,4.56l1.08,2.88,1.48-2.28,1.54-8.52s1-6.15,1.93-5.53,1.28,2.39.87,5l-1,6s-.1,1.05.84-.73,1.85-9.19,2.21-10.2.44-3.64,2-3.54.71,3.5.71,3.5l-1.2,11s1.31-4.42,1.57-5.18.61-3.16,1.08-4.48,1.23-2,1.9-1.95a1.25,1.25,0,0,1,1.21,1.22l-2,9.39s-1.13,4.29-1,4.56,1.61-1.82,1.61-1.82l1.13-3s.89-4.32,2-4.47,1.21.72,1.21.72l-1.7,7.89-3.27,9-3.12,6.8a31.31,31.31,0,0,1-.33,3.73C595.11,170.87,586.15,170.26,586.15,170.26Z" style="fill:#ffbe9d"></path><path d="M586.94,152a18.43,18.43,0,0,1-3.75,4.9,18.43,18.43,0,0,1,3.75-4.9Z" style="fill:#eb996e"></path><path d="M597.43,155.05a16,16,0,0,0-8,4.82,9.68,9.68,0,0,1,8-4.82Z" style="fill:#eb996e"></path><path d="M604.15,159.4c-.07-.06.53-.78,1.31-2.07a18.71,18.71,0,0,0,2.63-11.22c-.12-1.5-.34-2.42-.25-2.44a7.46,7.46,0,0,1,.62,2.4,16.66,16.66,0,0,1-2.69,11.46A7.46,7.46,0,0,1,604.15,159.4Z" style="fill:#263238"></path><path d="M610.31,159.61a28.66,28.66,0,0,0,2-8,29.61,29.61,0,0,0-.82-8.21,7.86,7.86,0,0,1,.84,2.31,18.68,18.68,0,0,1,.5,5.93,19.09,19.09,0,0,1-1.37,5.79A7.9,7.9,0,0,1,610.31,159.61Z" style="fill:#263238"></path><path d="M583.45,136.62a3.56,3.56,0,0,1,.13-1.63,9.86,9.86,0,0,1,4.59-6.21,3.63,3.63,0,0,1,1.51-.6,16.41,16.41,0,0,0-4,3.55A16.83,16.83,0,0,0,583.45,136.62Z" style="fill:#263238"></path><path d="M579.41,135a10,10,0,0,1,2.62-5.13,9.85,9.85,0,0,1,4.77-3.25,23.82,23.82,0,0,0-4.38,3.59A25,25,0,0,0,579.41,135Z" style="fill:#263238"></path><path d="M520.92,180.35c-.09,0-.08-1.07-.37-2.76a19.24,19.24,0,0,0-2.24-6.23,10.52,10.52,0,0,0-4.55-4.64,6.32,6.32,0,0,0-2.67-.42,1.46,1.46,0,0,1,.74-.2,4.52,4.52,0,0,1,2.07.28,10.21,10.21,0,0,1,4.86,4.72,17,17,0,0,1,2.15,6.44A8.18,8.18,0,0,1,520.92,180.35Z" style="fill:#263238"></path><polygon points="592.17 428.93 594.84 468.6 577.72 470.7 569.52 430.19 592.17 428.93" style="fill:#ffbe9d"></polygon><path d="M594.63,463.36l.16,1.14s20.32,5.16,21,8.79l-38.3,4.93-1.12-12.81A22.09,22.09,0,0,0,594.63,463.36Z" style="fill:#6C5DAE"></path><path d="M601.69,469.66c-.15,0-.49-.74-.18-1.7s1-1.42,1.12-1.29-.33.67-.57,1.46S601.85,469.62,601.69,469.66Z" style="fill:#263238"></path><g style="opacity:0.6000000000000001"><path d="M580.78,469a1.58,1.58,0,0,0-.85,1.93,1.53,1.53,0,0,0,1.9.86,1.66,1.66,0,0,0,.89-2,1.57,1.57,0,0,0-2.08-.68" style="fill:#fff"></path></g><g style="opacity:0.6000000000000001"><path d="M577.5,478.22l-.27-3.08,36.81-3.6s1.8.52,1.76,1.75Z" style="fill:#fff"></path></g><path d="M594.94,464.59c0,.19-.91.39-1.75,1.11s-1.23,1.57-1.41,1.52,0-1.17,1-2S595,464.41,594.94,464.59Z" style="fill:#263238"></path><path d="M599.17,465.73c.07.18-.7.6-1.24,1.47s-.61,1.74-.79,1.75-.44-1,.24-2.1S599.14,465.55,599.17,465.73Z" style="fill:#263238"></path><polygon points="509.42 430.69 494.43 467.52 478.12 461.91 488.51 421.9 509.42 430.69" style="fill:#ffbe9d"></polygon><path d="M496.54,462.72l-.36,1.09s16,13.55,15,17.11l-36.59-12.35,4.61-12A22.12,22.12,0,0,0,496.54,462.72Z" style="fill:#6C5DAE"></path><g style="opacity:0.6000000000000001"><path d="M481.62,461.7a1.59,1.59,0,0,0-1.61,1.36,1.51,1.51,0,0,0,1.33,1.6,1.66,1.66,0,0,0,1.7-1.44c0-.78-.81-1.65-1.57-1.52" style="fill:#fff"></path></g><g style="opacity:0.6000000000000001"><path d="M474.62,468.57l1.11-2.89,34.67,12.9s1.39,1.26.81,2.34Z" style="fill:#fff"></path></g><path d="M496.28,464c-.07.17-1,0-2.06.23s-1.8.87-1.94.75.47-1.07,1.78-1.39S496.37,463.81,496.28,464Z" style="fill:#263238"></path><path d="M499.58,466.84c0,.19-.9.23-1.76.78s-1.31,1.29-1.48,1.23.05-1.12,1.14-1.79S499.63,466.67,499.58,466.84Z" style="fill:#263238"></path><path d="M500.21,472.17c-.18,0-.13-1,.66-1.82s1.76-.93,1.78-.75-.66.52-1.3,1.21S500.39,472.21,500.21,472.17Z" style="fill:#263238"></path><path d="M588.8,371.15l-26.07-86.24V250.15l-42.79-6-3.34,14a58.37,58.37,0,0,0-8.69,18.72,18,18,0,0,0-.47,3.09c-1.42,6.33-1,20.56,1.39,25.25,3.41,6.77-5.51,56.56-5.51,56.56s-7.36,20.72-12,33.43S480.9,451,480.9,451l18.7,4.59,29.79-74.43s5.56-23.22,10-42.31c10.39,13.82,20.59,26.9,20.59,26.9a170.21,170.21,0,0,1,2.49,29.94c0,17.39,12.24,60.1,12.24,60.1l19.12-2.24Z" style="fill:#263238"></path><path d="M546.86,348.66a1.83,1.83,0,0,1-.34-.32c-.25-.28-.56-.6-.92-1-.79-.87-1.9-2.15-3.2-3.8-2.63-3.26-6-7.95-9.53-13.29s-6.53-10.27-8.69-13.86l-2.52-4.26c-.26-.46-.48-.85-.67-1.17a2.22,2.22,0,0,1-.2-.43s.12.12.29.37l.75,1.12,2.67,4.18c2.24,3.53,5.3,8.44,8.8,13.77s6.84,10,9.39,13.35c1.26,1.66,2.33,3,3.06,3.88l.85,1.06C546.78,348.51,546.88,348.64,546.86,348.66Z" style="fill:#455a64"></path><path d="M554.83,252.48a5.57,5.57,0,0,1-.57,1.06,11,11,0,0,1-.79,1.18,15.7,15.7,0,0,1-1.16,1.48,19.51,19.51,0,0,1-1.56,1.67,24.8,24.8,0,0,1-2,1.73,28.3,28.3,0,0,1-5.11,3.16,28.76,28.76,0,0,1-5.69,1.93,24.23,24.23,0,0,1-2.59.41,18.79,18.79,0,0,1-2.28.15,16,16,0,0,1-1.88-.05,11.74,11.74,0,0,1-1.41-.14,5.17,5.17,0,0,1-1.19-.24c0-.11,1.72.18,4.47.06a18.88,18.88,0,0,0,2.24-.21c.8-.08,1.65-.27,2.54-.45a27.54,27.54,0,0,0,10.6-5,24.55,24.55,0,0,0,2-1.67A18.13,18.13,0,0,0,552,256C553.88,253.92,554.74,252.42,554.83,252.48Z" style="fill:#455a64"></path><path d="M510.91,122.69c1.71-7.26,4.77-14.68,10.78-19.09,5.36-3.93,13.18-5.42,19.81-4.93a23.47,23.47,0,0,1,9.7,3.57c3.84,2.34,5.34,6.88,7.09,11,3.51,8.28,2.67,19.31,0,22.29l-34.67,16.89c-5.93-3.33-12.36-7.83-13.74-14.49C509,133.4,509.85,127.2,510.91,122.69Z" style="fill:#263238"></path><path d="M524,109.81l21.65-5.63c6.94-.78,11.62,7.74,12.11,14.71.54,7.74.89,17.22,0,23-1.76,11.64-10.66,13.17-10.66,13.17s0,.18-.07,3.63l.11,8.9,4.4,25.29-27.24-29.09L520.41,114A4.09,4.09,0,0,1,524,109.81Z" style="fill:#ffbe9d"></path><path d="M553.07,127.13a1.48,1.48,0,0,1-1.42,1.52,1.43,1.43,0,0,1-1.55-1.34,1.5,1.5,0,0,1,1.43-1.51A1.42,1.42,0,0,1,553.07,127.13Z" style="fill:#263238"></path><path d="M555.78,123.83c-.19.2-1.32-.63-2.93-.61s-2.77.82-3,.63.1-.44.61-.82a4.13,4.13,0,0,1,2.36-.74,3.91,3.91,0,0,1,2.33.73C555.7,123.4,555.87,123.75,555.78,123.83Z" style="fill:#263238"></path><path d="M537,127.13a1.49,1.49,0,0,1-1.43,1.52,1.43,1.43,0,0,1-1.54-1.34,1.5,1.5,0,0,1,1.42-1.51A1.42,1.42,0,0,1,537,127.13Z" style="fill:#263238"></path><path d="M540,124.24c-.18.2-1.32-.63-2.92-.62s-2.77.83-3,.63.1-.44.61-.81a4.1,4.1,0,0,1,2.36-.75,3.91,3.91,0,0,1,2.33.74C539.93,123.8,540.1,124.15,540,124.24Z" style="fill:#263238"></path><path d="M545.91,136.09a10.67,10.67,0,0,1,2.61-.48c.41-.05.79-.13.86-.41a2.11,2.11,0,0,0-.28-1.21l-1.23-3.11c-1.72-4.43-3-8.08-2.78-8.14s1.71,3.46,3.42,7.89c.42,1.09.81,2.14,1.19,3.13a2.46,2.46,0,0,1,.22,1.61,1,1,0,0,1-.67.6,2.68,2.68,0,0,1-.7.1A9.83,9.83,0,0,1,545.91,136.09Z" style="fill:#263238"></path><path d="M547.15,155.06a29.56,29.56,0,0,1-15.59-4s3.9,8.11,15.53,6.94Z" style="fill:#eb996e"></path><path d="M540.64,139.12a2.58,2.58,0,0,1,2.13-1.18,3.34,3.34,0,0,1,3.06,1.49,2.08,2.08,0,0,1,.15,1.51c-.11.25,0,.13-.22.3a5.89,5.89,0,0,1-2.39,1.51,2.53,2.53,0,0,1-2.66-1A2.57,2.57,0,0,1,540.64,139.12Z" style="fill:#eb996e"></path><path d="M541.2,137.24c.26,0,.28,1.72,1.78,2.94s3.35,1,3.36,1.27-.41.34-1.19.37a4.35,4.35,0,0,1-2.81-1,3.82,3.82,0,0,1-1.38-2.47C540.89,137.66,541.08,137.23,541.2,137.24Z" style="fill:#263238"></path><path d="M540.71,120.54c-.15.44-1.75.24-3.63.48s-3.4.76-3.65.37c-.12-.18.15-.6.76-1a6.34,6.34,0,0,1,5.55-.65C540.43,120,540.78,120.33,540.71,120.54Z" style="fill:#263238"></path><path d="M555.15,118.29c-.28.37-1.38,0-2.71,0s-2.45.26-2.72-.12c-.11-.18.06-.55.55-.9a3.94,3.94,0,0,1,4.38.11C555.12,117.74,555.28,118.12,555.15,118.29Z" style="fill:#263238"></path><path d="M523.54,128.13c-.16-.08-6.48-2.08-6.42,4.41s6.56,5.09,6.57,4.9S523.54,128.13,523.54,128.13Z" style="fill:#ffbe9d"></path><path d="M521.69,135s-.12.08-.31.17a1.08,1.08,0,0,1-.84,0,2.79,2.79,0,0,1-1.32-2.49,3.66,3.66,0,0,1,.31-1.62,1.3,1.3,0,0,1,.84-.88.57.57,0,0,1,.67.31c.09.18.05.31.08.32s.14-.11.08-.38a.66.66,0,0,0-.25-.4.84.84,0,0,0-.63-.16,1.56,1.56,0,0,0-1.17,1,3.82,3.82,0,0,0-.38,1.81,2.93,2.93,0,0,0,1.68,2.79,1.22,1.22,0,0,0,1-.18C521.68,135.16,521.71,135,521.69,135Z" style="fill:#eb996e"></path><path d="M519.54,137.16s-.28.28-.24.86a1.17,1.17,0,0,0,.46.9A1.32,1.32,0,0,0,521,139a1.31,1.31,0,0,0,.87-.9,1.37,1.37,0,0,0-.18-1c-.32-.5-.73-.55-.73-.52s.31.18.52.63a1.16,1.16,0,0,1,.09.81,1.05,1.05,0,0,1-.68.67,1.13,1.13,0,0,1-1,0,1,1,0,0,1-.4-.69A4.09,4.09,0,0,1,519.54,137.16Z" style="fill:#fafafa"></path><path d="M558.32,120.73a10.17,10.17,0,0,0-4.38-4.28c-1.8-1-3.75-1.77-5.55-2.81a19.49,19.49,0,0,1-8.71-10.9,11.66,11.66,0,0,1,10.38.13,15.84,15.84,0,0,1,7.18,7.75,24.87,24.87,0,0,1,2,10.51" style="fill:#263238"></path><path d="M522.05,108.08c4.79-4.56,13.86-7.08,20.11-4.94-.93,5.46-5,11.59-8.68,15.78s-5.85,11.6-13.78,9.09c-.55-.17-1.17.32-1.67,0a2,2,0,0,1-.77-1.2A18.61,18.61,0,0,1,522.05,108.08Z" style="fill:#263238"></path><path d="M558,128.61a2.39,2.39,0,0,0,1.14-.06,4.48,4.48,0,0,0,2.49-1.84,6.8,6.8,0,0,0,1-4.48,16.42,16.42,0,0,0-.45-2.69,28.31,28.31,0,0,0-5.87-11.69,26.71,26.71,0,0,0-2.14-2.26l-.63-.55c-.15-.12-.23-.19-.24-.18a9.19,9.19,0,0,0,.78.83c.5.53,1.24,1.29,2.05,2.31a30.21,30.21,0,0,1,4.92,8.84c.31.94.6,1.86.81,2.77a16.44,16.44,0,0,1,.47,2.65,6.71,6.71,0,0,1-.87,4.32,4.43,4.43,0,0,1-2.34,1.84A5.48,5.48,0,0,1,558,128.61Z" style="fill:#263238"></path><path d="M508.24,156.33a1.21,1.21,0,0,0,.13.35,4.43,4.43,0,0,0,.58.87,4.72,4.72,0,0,0,1.31,1,4.46,4.46,0,0,0,4.7-.23,4.68,4.68,0,0,0,.53-7.31,3.26,3.26,0,0,0-1.7-.84,1.92,1.92,0,0,0-1.82.56,1.76,1.76,0,0,0-.18,1.84,2.47,2.47,0,0,0,1.29,1.24,4.88,4.88,0,0,0,1.65.38,6.59,6.59,0,0,0,5.22-2.06,6.46,6.46,0,0,0,1.64-3.46,6.23,6.23,0,0,0,.06-1.05,1.58,1.58,0,0,0,0-.36,13.39,13.39,0,0,1-.13,1.39,6.56,6.56,0,0,1-1.69,3.32,6.38,6.38,0,0,1-5,1.92,4.63,4.63,0,0,1-1.54-.37,2.17,2.17,0,0,1-1.13-1.08,1.44,1.44,0,0,1,.14-1.5,1.57,1.57,0,0,1,1.52-.44,3.56,3.56,0,0,1,2.53,2.13,4.47,4.47,0,0,1,.26,3.16,4.52,4.52,0,0,1-1.73,2.31,4.26,4.26,0,0,1-2.41.78,4.46,4.46,0,0,1-2.05-.49,4.62,4.62,0,0,1-1.29-1A6.17,6.17,0,0,1,508.24,156.33Z" style="fill:#263238"></path><path d="M517.12,162a2.39,2.39,0,0,0,.58-.31,9.09,9.09,0,0,0,1.43-1.12,10.93,10.93,0,0,0,3.08-11,9.82,9.82,0,0,0-.64-1.69,1.92,1.92,0,0,0-.34-.57c-.06,0,.4.85.76,2.32a11.36,11.36,0,0,1-3,10.78C517.9,161.49,517.08,162,517.12,162Z" style="fill:#263238"></path><path d="M513.56,118.74s.1-.06.26-.21l.71-.64.5-.47.64-.51c.46-.36,1-.8,1.59-1.21l1-.66,1.07-.67c.73-.47,1.55-.9,2.41-1.38,1.72-.92,3.66-1.87,5.7-2.85s4-2,5.68-2.94c.84-.51,1.66-1,2.37-1.48.36-.25.71-.48,1-.72l.92-.73a17.79,17.79,0,0,0,1.51-1.32c.21-.21.42-.39.6-.57l.45-.52c.25-.3.46-.54.63-.73a1.7,1.7,0,0,0,.2-.27s-.1.07-.25.23l-.67.68-.48.5c-.18.17-.39.35-.61.54a16.87,16.87,0,0,1-1.53,1.28l-.92.7-1,.7c-.72.5-1.53,1-2.37,1.45-1.71,1-3.63,1.92-5.67,2.91s-4,1.93-5.71,2.87c-.85.49-1.67.94-2.4,1.42-.37.24-.74.46-1.07.69l-1,.68c-.61.42-1.11.88-1.57,1.26-.22.19-.44.36-.62.53l-.49.5q-.41.4-.66.69C513.63,118.65,513.55,118.73,513.56,118.74Z" style="fill:#455a64"></path><path d="M558.72,120a13,13,0,0,0-.23-4,9,9,0,0,0-2-3.8A16.28,16.28,0,0,0,552.3,109a61,61,0,0,1-8.31-5.32c-1-.78-1.79-1.44-2.31-1.91a4.89,4.89,0,0,1-.78-.78,4.62,4.62,0,0,1,.91.62c.56.42,1.37,1,2.39,1.77a77.37,77.37,0,0,0,8.36,5.17,15.7,15.7,0,0,1,4.32,3.36,9.22,9.22,0,0,1,2,4,8.9,8.9,0,0,1,.13,3A3.61,3.61,0,0,1,558.72,120Z" style="fill:#455a64"></path><path d="M511.47,131.06a1.52,1.52,0,0,1-.16-.44,4.49,4.49,0,0,1-.13-1.32,6.78,6.78,0,0,1,2-4.4,14.85,14.85,0,0,1,6.35-3.4c1.29-.41,2.65-.79,4-1.3a19.5,19.5,0,0,0,4-2,31.18,31.18,0,0,0,6.43-5.84c1.74-2,3.17-4,4.4-5.65a18.07,18.07,0,0,0,1.53-2.26,5.59,5.59,0,0,0,.68-1.91,5,5,0,0,0-.06-1.74,1,1,0,0,1,.18.44,3.9,3.9,0,0,1,.09,1.33,5.79,5.79,0,0,1-.63,2,16.76,16.76,0,0,1-1.5,2.34c-1.18,1.66-2.58,3.66-4.33,5.74a30.6,30.6,0,0,1-6.5,6,19.81,19.81,0,0,1-4.11,2.07c-1.39.52-2.77.88-4,1.28a14.88,14.88,0,0,0-6.23,3.2,6.72,6.72,0,0,0-2.08,4.15A9.15,9.15,0,0,0,511.47,131.06Z" style="fill:#455a64"></path><path d="M524.55,162.13,550,189.78l-3.09-22.47,4,3.46s13.75,27.5,14.36,33c.8,7.15-3.1,16.37-3.1,16.37l3.33,24.55c.47,2.78-1.34,5.46-2.55,5.46L524.18,245c-5-1-7.12-3.63-6.81-6.56l.57-5.4-16.53-55.39c-1,3.27.55-8.83,7.93-11.54C512.47,164.94,519.79,161.13,524.55,162.13Z" style="fill:#6C5DAE"></path><path d="M548.79,169.14s6.9,5.32,13.43,11.37,23.95,18.14,23.95,18.14L584.41,169l13.3-1.8s8.46,33.36,4.39,42.07-8.19,11.61-21.74,7.26S563,210.26,563,210.26Z" style="fill:#6C5DAE"></path><path d="M552.25,172.9s.13.12.31.39l.81,1.18c.69,1,1.67,2.53,2.83,4.42a70.38,70.38,0,0,1,7.53,15.6,34.59,34.59,0,0,1,1.15,17.2,23.14,23.14,0,0,1-1.62,5c-.24.57-.5,1-.65,1.28s-.24.43-.26.42.26-.64.73-1.78a26.1,26.1,0,0,0,1.44-5,35.42,35.42,0,0,0-1.29-17,76.78,76.78,0,0,0-7.34-15.56l-2.69-4.5-.72-1.23A2.73,2.73,0,0,1,552.25,172.9Z" style="fill:#263238"></path><g style="opacity:0.30000000000000004"><path d="M521.34,244.21c2.22-2.22,2.69-5.61,3-8.74q1.67-14.92,3.32-29.85c.69-6.2,1.35-12.71-1-18.49a3.14,3.14,0,0,0-1.77-2.06,2.27,2.27,0,0,0-2.32,1c-.54.71-2.05,1.73-2.28,2.6-2.25,8.87-3.24,17.6-5.49,26.47-.6,2.35-1.38,2.26-.86,4.62.75,3.43,4,13.29,4,13.29s-.46,3.57-.59,5.66a5.41,5.41,0,0,0,4,5.53"></path></g><g style="opacity:0.30000000000000004"><path d="M556.77,179.62c10.59,10.63,19.69,22.44,23.59,36.93l-15.54-5.48a26.87,26.87,0,0,0,.26-8.75c-.6-3.5.45-7.95-8.31-22.7"></path></g><path d="M554,204.78s0,.3-.2.83a6.06,6.06,0,0,1-.34.93,12.38,12.38,0,0,1-.56,1.2,16.8,16.8,0,0,1-1.91,2.88,18.27,18.27,0,0,1-6.67,5.1,17.32,17.32,0,0,1-3.28,1.08,12.3,12.3,0,0,1-2.3.31,2.55,2.55,0,0,1-.85,0c0-.1,1.2-.16,3.06-.65a20.45,20.45,0,0,0,3.17-1.15,22,22,0,0,0,3.52-2.14,21.51,21.51,0,0,0,3-2.84,18.56,18.56,0,0,0,1.94-2.75C553.56,205.9,553.93,204.75,554,204.78Z" style="fill:#263238"></path><path d="M556.17,241a6.51,6.51,0,0,0-1.06,3.74c0,.45.33,1,.78.93.28,0,.45-.33.59-.57,2.47-4.46,4.82-8.24,7.29-12.7l-.12-.88A35.11,35.11,0,0,0,556.17,241Z" style="fill:#fafafa"></path><path d="M555.53,230.37a40.51,40.51,0,0,0,7.93-.33l-.06-.46a41.65,41.65,0,0,0-7.42-2.46,12,12,0,0,0-7.19.52A11.68,11.68,0,0,0,555.53,230.37Z" style="fill:#fafafa"></path><path d="M555.72,221.62c2.4,2,5,4.24,7.45,6.27l-1.64-3a31.14,31.14,0,0,0-6.1-7.22,2.77,2.77,0,0,0-1-.55,1,1,0,0,0-1,.26,1.29,1.29,0,0,0-.14,1.18A6.68,6.68,0,0,0,555.72,221.62Z" style="fill:#fafafa"></path><path d="M531.9,214.39c2.06,1.36,4.14,1.8,6.43,2.7h.46a35.58,35.58,0,0,0-5-5.36,11.92,11.92,0,0,0-6.59-2.9A11.66,11.66,0,0,0,531.9,214.39Z" style="fill:#fafafa"></path><path d="M537.39,208.13c1.18,2.92,2.33,5.7,3.51,8.62l.09-3a30.44,30.44,0,0,0-2-9.23,2.82,2.82,0,0,0-.59-1,1,1,0,0,0-1-.25,1.26,1.26,0,0,0-.67,1A6.64,6.64,0,0,0,537.39,208.13Z" style="fill:#fafafa"></path><path d="M590.45,213.81a6.51,6.51,0,0,0-2.69,2.81c-.16.42-.17,1,.26,1.18a1,1,0,0,0,.79-.23c4.27-2.78,8.63-4.67,12.89-7.45l.4-.83C598.25,210.2,593.75,211.62,590.45,213.81Z" style="fill:#fafafa"></path><path d="M595.19,205.42a39.19,39.19,0,0,0,7.16,3.25l.18-.55a38.61,38.61,0,0,0-5.42-5.35,12,12,0,0,0-6.6-2.9A11.61,11.61,0,0,0,595.19,205.42Z" style="fill:#fafafa"></path><path d="M599.45,197.78c1.18,2.92,2.33,5.7,3.51,8.62l.09-3a30.44,30.44,0,0,0-2-9.23,2.82,2.82,0,0,0-.59-.95,1,1,0,0,0-1-.25,1.24,1.24,0,0,0-.67,1A6.64,6.64,0,0,0,599.45,197.78Z" style="fill:#fafafa"></path><path d="M568.22,189.53a37.66,37.66,0,0,1,9.44,12.18l-1.83-1.16c.16.62.33,1.24.5,1.86l-1.61-1.49.36,1.81a.52.52,0,0,1-.34-.26,23,23,0,0,1,1.36,10.86,72.6,72.6,0,0,1-4.27-8.21,4.11,4.11,0,0,0-.1,2.17l-1.5-2.83c-.07.64-.14,1.28-.2,1.91l-4.17-16.18Z" style="fill:#263238"></path><path d="M555.82,148s2.68,5.82,2.68,9.11c0,0,5.77,7.2,6.07,10.58,0,0,4.43,5.28,3.22,9.07,0,0,3.35,4.48.21,8.09s-4.85,2.76-4.85,2.76-9.47-1.55-10.85-5.68A24.9,24.9,0,0,1,548,174c-1.21-4.58-.76-19-.76-19A16.07,16.07,0,0,0,555.82,148Z" style="fill:#263238"></path><path d="M565,186.5c.49-.29.54-.61.91-1.05a3.68,3.68,0,0,1,1.27-1.12,1.4,1.4,0,0,1,1.59.21c.55.59.25,1.56.46,2.34a10.31,10.31,0,0,1,.46,1.28,1.85,1.85,0,0,1-.63,1.54,5.71,5.71,0,0,1-1.46.89,5.64,5.64,0,0,1-1.66.57,1.88,1.88,0,0,1-1.62-.51c-.25-.29-.38-.67-.63-1a6.68,6.68,0,0,0-1.12-.84,1.16,1.16,0,0,1-.54-1.2c.18-.53.87-.66,1.43-.65s1.23,0,1.54-.49" style="fill:#455a64"></path><path d="M556.53,175.35a1.54,1.54,0,0,0,.1.57,9.59,9.59,0,0,0,.53,1.5,11.15,11.15,0,0,0,7.91,6.37,8.88,8.88,0,0,0,1.57.2,2.1,2.1,0,0,0,.59,0c0-.06-.83-.08-2.11-.4a11.77,11.77,0,0,1-7.76-6.25C556.78,176.14,556.58,175.33,556.53,175.35Z" style="fill:#455a64"></path><path d="M556.75,185.26a7.63,7.63,0,0,0,1.4-6.6,19.56,19.56,0,0,1-.25,3.39A18.63,18.63,0,0,1,556.75,185.26Z" style="fill:#455a64"></path><path d="M555.52,174.32s.12.16.37.39a9.28,9.28,0,0,0,1.15.92,11.86,11.86,0,0,0,1.91,1.05,13.62,13.62,0,0,0,2.55.82,13.46,13.46,0,0,0,2.67.26,11.32,11.32,0,0,0,2.17-.21,8.36,8.36,0,0,0,1.42-.38,1.92,1.92,0,0,0,.49-.21c0-.06-.74.19-2,.37a14.71,14.71,0,0,1-2.13.14,15.37,15.37,0,0,1-2.6-.28,16,16,0,0,1-2.5-.78,13.32,13.32,0,0,1-1.9-1C556.13,174.79,555.56,174.28,555.52,174.32Z" style="fill:#455a64"></path><path d="M551.58,181.64a4.59,4.59,0,0,0,1.08-.9A11,11,0,0,0,554.6,178a10.86,10.86,0,0,0,1-3.23,4.51,4.51,0,0,0,.06-1.39,14.32,14.32,0,0,1-4.09,8.28Z" style="fill:#455a64"></path><path d="M553.62,168a2,2,0,0,0,.37.41,10.72,10.72,0,0,0,1.15,1,13.05,13.05,0,0,0,4.49,2.12,13.57,13.57,0,0,0,2.72.38,12.49,12.49,0,0,0,2.23-.14,8.4,8.4,0,0,0,1.47-.35,1.74,1.74,0,0,0,.51-.2c0-.06-.76.18-2,.32a13.72,13.72,0,0,1-2.19.07,13.95,13.95,0,0,1-7.09-2.39C554.23,168.54,553.66,168,553.62,168Z" style="fill:#455a64"></path><path d="M548.9,174.84a3.66,3.66,0,0,0,1.17-.46,9.66,9.66,0,0,0,2.45-1.81,10,10,0,0,0,1.79-2.48,3.64,3.64,0,0,0,.44-1.18,18.32,18.32,0,0,1-2.46,3.43A18,18,0,0,1,548.9,174.84Z" style="fill:#455a64"></path><path d="M552.74,166.43c0,.06.65-.21,1.72-.46a13.3,13.3,0,0,1,4.26-.26,13.06,13.06,0,0,1,4.11,1.16c1,.47,1.56.86,1.59.82s-.11-.13-.36-.32a7.91,7.91,0,0,0-1.13-.71,11.6,11.6,0,0,0-8.52-.91,7.35,7.35,0,0,0-1.25.45C552.88,166.33,552.73,166.41,552.74,166.43Z" style="fill:#455a64"></path><path d="M547.94,167.78s.2-.39.6-.93a4.76,4.76,0,0,1,2.05-1.55,4.67,4.67,0,0,1,2.57-.18c.66.14,1,.35,1.06.3a2.15,2.15,0,0,0-1-.52,4.31,4.31,0,0,0-2.73.1,4.35,4.35,0,0,0-2.13,1.73A2,2,0,0,0,547.94,167.78Z" style="fill:#455a64"></path><path d="M559.5,159.33a2.83,2.83,0,0,0-1.37-.29,4.83,4.83,0,0,0-4.88,4,2.65,2.65,0,0,0,0,1.4s0-.54.21-1.35a4.92,4.92,0,0,1,4.66-3.81C559,159.24,559.48,159.39,559.5,159.33Z" style="fill:#455a64"></path><path d="M547.89,161.51a7,7,0,0,0,.84-.26,4.63,4.63,0,0,1,3.92.75c.42.31.64.57.68.54s-.13-.34-.54-.72a4.09,4.09,0,0,0-2-.95,4,4,0,0,0-2.17.17C548.14,161.24,547.87,161.48,547.89,161.51Z" style="fill:#455a64"></path><path d="M554.21,154.64s-.35.23-.75.74a6.87,6.87,0,0,0-1.14,2.29,7,7,0,0,0-.23,2.54,2.47,2.47,0,0,0,.25,1,11.63,11.63,0,0,1,.29-3.48A11.77,11.77,0,0,1,554.21,154.64Z" style="fill:#455a64"></path><path d="M550.23,154.66a8.92,8.92,0,0,1,1.11,1.9,9,9,0,0,1,.3,2.18s.14-.23.19-.65a3.81,3.81,0,0,0-.19-1.63,3.74,3.74,0,0,0-.86-1.41C550.49,154.75,550.25,154.63,550.23,154.66Z" style="fill:#455a64"></path><polygon points="471.5 271.1 501.4 177.63 500.69 192.68 475.4 271.42 471.5 271.1" style="fill:#455a64"></polygon><rect x="458.37" y="274.1" width="70.39" height="53.32" rx="4.52" transform="translate(46.37 -65.41) rotate(7.95)" style="fill:#455a64"></rect><path d="M527.64,278.6a1.34,1.34,0,0,1,0,.3c0,.22,0,.5-.09.85-.1.79-.23,1.88-.4,3.28-.38,2.88-.92,7-1.59,12l-2.42,17.83c-.46,3.36-1,6.88-1.45,10.53a3.73,3.73,0,0,1-1.38,2.56,3.67,3.67,0,0,1-2.86.75l-5.73-.8-39.65-5.63-12-1.76-3.26-.51-.85-.14-.28-.07.29,0,.85.09,3.28.41,12,1.6,39.67,5.47,5.73.81a3.18,3.18,0,0,0,3.66-2.87c.52-3.65,1-7.17,1.48-10.52L525.17,295l1.76-12c.21-1.39.38-2.48.5-3.26l.14-.85A1.48,1.48,0,0,1,527.64,278.6Z" style="fill:#263238"></path><rect x="503.42" y="317.97" width="9.96" height="2.8" transform="translate(49.09 -67.28) rotate(7.95)" style="fill:#fafafa"></rect><path d="M523.75,172.82c-1.16-3.6-5.33-8.19-9-8.92L511.29,165c4,2.11,7.42,5.09,8.52,9.5s.94,9,.77,13.57q-1.77,48.12-3.55,96.26c.69.85,2.18.53,2.84-.35a5.56,5.56,0,0,0,.78-3.15Q522,247.38,523.39,214l1.23-29.89C524.78,180.3,524.92,176.42,523.75,172.82Z" style="fill:#455a64"></path><polygon points="518.86 294.79 527 274.24 498.21 271.1 490.72 290.69 518.86 294.79" style="fill:#e0e0e0"></polygon><polygon points="515.92 294.24 524.73 271.99 493.57 268.6 485.46 289.8 515.92 294.24" style="fill:#fafafa"></polygon><path d="M517.71,278.19a22.92,22.92,0,0,1-3.35-.31l-8.06-1-8.06-.94a23,23,0,0,1-3.33-.5,21.21,21.21,0,0,1,3.36.13c2.08.15,4.94.42,8.09.8s6,.79,8,1.13A20.51,20.51,0,0,1,517.71,278.19Z" style="fill:#263238"></path><path d="M516.27,280.87a22,22,0,0,1-3.36-.3l-8-1-8.07-.95a22.65,22.65,0,0,1-3.33-.49,19.92,19.92,0,0,1,3.37.13c2.07.15,4.94.42,8.09.8s6,.78,8,1.12A20.51,20.51,0,0,1,516.27,280.87Z" style="fill:#263238"></path><path d="M514.82,283.56a23.61,23.61,0,0,1-3.35-.3l-8.06-1-8.06-.95a24.13,24.13,0,0,1-3.33-.49,20.32,20.32,0,0,1,3.36.12c2.08.16,4.94.43,8.09.8s6,.79,8,1.13A20.51,20.51,0,0,1,514.82,283.56Z" style="fill:#263238"></path><path d="M513.38,286.25a23.1,23.1,0,0,1-3.36-.31l-8-1-8.07-1a24.48,24.48,0,0,1-3.33-.49,20.44,20.44,0,0,1,3.37.12c2.07.16,4.94.42,8.09.8s6,.79,8,1.13A20.51,20.51,0,0,1,513.38,286.25Z" style="fill:#263238"></path><path d="M511.93,288.94a22.92,22.92,0,0,1-3.35-.31l-8.06-1-8.06-1a21.4,21.4,0,0,1-3.33-.5,21.21,21.21,0,0,1,3.36.13c2.08.15,4.94.42,8.09.8s6,.79,8.05,1.13A20.51,20.51,0,0,1,511.93,288.94Z" style="fill:#263238"></path><path d="M522.57,295.21c0,.14-14-1.78-31.28-4.3s-31.23-4.67-31.21-4.82,14,1.79,31.28,4.3S522.59,295.07,522.57,295.21Z" style="fill:#263238"></path><path d="M507.62,167.19a6.57,6.57,0,0,1,8.43,2.66c2,3.44,4.63,8.73,4.86,13.75.38,8.39-12.52,58.66-12.52,58.66l-11.31,45.9L483,283s3.28-32.67,3.9-36.73c1.3-8.45,6.87-24.93,7.64-34.46s4.29-27.87,6-32.17C501.92,176.26,502.26,169.78,507.62,167.19Z" style="fill:#6C5DAE"></path><path d="M506,210.44a6.56,6.56,0,0,0-2.69,2.81c-.17.42-.17,1,.26,1.18a1,1,0,0,0,.79-.23c4.26-2.78,8.31-5.16,12.57-7.94l.1-.7A35.07,35.07,0,0,0,506,210.44Z" style="fill:#fafafa"></path><path d="M510.35,200.76a36.63,36.63,0,0,0,6.84,3.25l0-.55a35.58,35.58,0,0,0-5-5.36,12,12,0,0,0-6.6-2.9A11.64,11.64,0,0,0,510.35,200.76Z" style="fill:#fafafa"></path><path d="M514.61,193.12c1.18,2.92,2.33,5.7,3.51,8.62l.09-3a30.57,30.57,0,0,0-2-9.24,2.77,2.77,0,0,0-.59-.94,1.07,1.07,0,0,0-1-.26,1.26,1.26,0,0,0-.67,1A6.67,6.67,0,0,0,514.61,193.12Z" style="fill:#fafafa"></path><path d="M520.33,188.25a1.66,1.66,0,0,1,0,.49c0,.38-.1.84-.16,1.4-.17,1.21-.44,3-.83,5.12-.77,4.3-2,10.22-3.46,16.72s-2.91,12.38-4,16.61c-.55,2.12-1,3.82-1.34,5l-.4,1.35c-.1.31-.16.47-.18.46a2.27,2.27,0,0,1,.08-.49l.3-1.37c.3-1.27.7-3,1.18-5,1-4.33,2.36-10.17,3.86-16.63s2.75-12.4,3.61-16.68c.41-2.09.74-3.8,1-5.08.1-.55.19-1,.26-1.38A2.14,2.14,0,0,1,520.33,188.25Z" style="fill:#263238"></path><path d="M487.61,242.51a34.63,34.63,0,0,0,11.4-3.93,6.59,6.59,0,0,0,2.92-2.57c.2-.4.25-1-.16-1.2a1,1,0,0,0-.81.16c-4.49,2.41-8.71,4.44-13.2,6.85" style="fill:#fafafa"></path><path d="M493.82,247.86a36.19,36.19,0,0,0-6.54-3.82l-.09.54a36,36,0,0,0,4.5,5.76,11.93,11.93,0,0,0,6.32,3.45A11.61,11.61,0,0,0,493.82,247.86Z" style="fill:#fafafa"></path><path d="M489.5,256.3c-.93-3-1.84-5.88-2.77-8.89l-.35,3a30.79,30.79,0,0,0,1.23,9.37,2.69,2.69,0,0,0,.52,1,1.05,1.05,0,0,0,1,.34,1.28,1.28,0,0,0,.75-.92A6.67,6.67,0,0,0,489.5,256.3Z" style="fill:#fafafa"></path><path d="M477,296c-3.29-1.54-7.32-.52-10.24,1.64s-4.93,5.3-6.83,8.38-3.82,6.27-6.59,8.61c-5.56,4.69-13.4,5.14-20.63,6s-15.23,2.89-18.91,9.16a73.38,73.38,0,0,1,10.35,13.94l7.62-2a19.33,19.33,0,0,1-3.84,6.32c4.93,3.65,12.13,2.87,17.31-.41s8.71-8.61,11.67-14c1.7-3.1,3.47-6.48,6.66-8,2.62-1.27,6-1.12,8.09-3.09,2.53-2.34,2.13-6.34,2.66-9.75a16,16,0,0,1,8.13-11.42" style="fill:#6C5DAE"></path><g style="opacity:0.30000000000000004"><path d="M477,296c-3.29-1.54-7.32-.52-10.24,1.64s-4.93,5.3-6.83,8.38-3.82,6.27-6.59,8.61c-5.56,4.69-13.4,5.14-20.63,6s-15.23,2.89-18.91,9.16a73.38,73.38,0,0,1,10.35,13.94l7.62-2a19.33,19.33,0,0,1-3.84,6.32c4.93,3.65,12.13,2.87,17.31-.41s8.71-8.61,11.67-14c1.7-3.1,3.47-6.48,6.66-8,2.62-1.27,6-1.12,8.09-3.09,2.53-2.34,2.13-6.34,2.66-9.75a16,16,0,0,1,8.13-11.42"></path></g><path d="M474.78,300.65a5.78,5.78,0,0,0-2.54,0,8.07,8.07,0,0,0-5.13,4.4c-1.41,2.59-2,6.25-4.15,9.66a23,23,0,0,1-9.58,8.56,23.38,23.38,0,0,1-6.43,1.94c-2.14.36-4.22.51-6.19.7a48.7,48.7,0,0,0-5.54.77,19.86,19.86,0,0,0-4.58,1.54,12.92,12.92,0,0,0-5.35,4.4,17.54,17.54,0,0,0-1.16,2.3,7.37,7.37,0,0,1,1-2.41,12.72,12.72,0,0,1,5.36-4.62,19.84,19.84,0,0,1,4.65-1.63,47.58,47.58,0,0,1,5.58-.82c3.92-.42,8.35-.65,12.45-2.64a22.65,22.65,0,0,0,9.39-8.35c2.14-3.3,2.75-6.92,4.24-9.58a8.16,8.16,0,0,1,5.4-4.42,4.38,4.38,0,0,1,1.95,0,2,2,0,0,1,.48.15Z" style="fill:#263238"></path><path d="M478.74,307.3c-3.69,3.11-.21,7.9,0,12.72,1.33,30-6.7,39.28-15.28,57.6,3.75.66,6.63.7,10.05-1-.19,3.15-.82,6-1,9.16a69.81,69.81,0,0,0,17.67-3A196.93,196.93,0,0,1,494,343.38c1.43-7.15,3.26-14.29,3.44-21.58s-1.49-14.95-6.29-20.45Z" style="fill:#6C5DAE"></path><path d="M472.5,385.81a3.62,3.62,0,0,1,0-.62c0-.46.09-1.06.16-1.8.16-1.63.38-3.91.66-6.76h0v0c1.07-3.28,2.36-7.42,3.55-12.22a151.29,151.29,0,0,0,4.2-43c-.08-1.73-.16-3.29-.28-4.66s-.18-2.56-.29-3.52-.15-1.67-.2-2.22a4.57,4.57,0,0,1,0-.78,3.49,3.49,0,0,1,.14.76c.08.56.18,1.29.31,2.22s.25,2.14.38,3.51.25,2.94.35,4.67a143.33,143.33,0,0,1-4.12,43.16c-1.22,4.81-2.56,8.95-3.68,12.22v0c-.34,2.84-.61,5.11-.81,6.73l-.24,1.79A2.64,2.64,0,0,1,472.5,385.81Z" style="fill:#263238"></path><path d="M488.57,321.36c-.16,0-.3-3.11-.95-6.88s-1.53-6.75-1.38-6.8a6.92,6.92,0,0,1,.75,1.91,38.41,38.41,0,0,1,1.14,4.81,40,40,0,0,1,.52,4.91A7.06,7.06,0,0,1,488.57,321.36Z" style="fill:#263238"></path><path d="M492.4,318.15c-.15,0-.59-2.79-1.75-6.07s-2.54-5.76-2.4-5.84a23.22,23.22,0,0,1,4.15,11.91Z" style="fill:#263238"></path><path d="M481,321.73a9,9,0,0,0-1.17.11,10.55,10.55,0,0,0-1.07.46,1.52,1.52,0,0,1,1-.66A1.54,1.54,0,0,1,481,321.73Z" style="fill:#fff"></path><path d="M497.29,320.75a4.43,4.43,0,0,1-.51.41,16.56,16.56,0,0,1-1.51,1,19.73,19.73,0,0,1-5.52,2.14,19.48,19.48,0,0,1-5.9.41,15.75,15.75,0,0,1-1.78-.25,3.2,3.2,0,0,1-.64-.15,4.29,4.29,0,0,1,.65.07c.42.07,1,.13,1.78.18A20.87,20.87,0,0,0,495.2,322c.66-.36,1.18-.67,1.53-.91A3,3,0,0,1,497.29,320.75Z" style="fill:#fff"></path><path d="M487.22,312.23a25.94,25.94,0,0,1-3,1.11,26.37,26.37,0,0,1-3.07.92,23,23,0,0,1,3-1.12A26.75,26.75,0,0,1,487.22,312.23Z" style="fill:#fff"></path><path d="M490.39,312.48a2,2,0,0,1-.92,1,2.11,2.11,0,0,1-1.33.43c0-.06.6-.19,1.22-.6S490.34,312.44,490.39,312.48Z" style="fill:#fff"></path><path d="M495,309a5.55,5.55,0,0,0-2.42.42,5.68,5.68,0,0,0-1.9,1.55,3.82,3.82,0,0,1,4.32-2Z" style="fill:#fff"></path><path d="M481.34,336.37s-.15.14-.46.22a2.09,2.09,0,0,1-1.23-.11,2,2,0,0,1-.95-.78c-.17-.27-.2-.47-.18-.47a3,3,0,0,0,1.21,1.06A2.89,2.89,0,0,0,481.34,336.37Z" style="fill:#fff"></path><path d="M495,338.29a3.3,3.3,0,0,1-.51.21c-.34.13-.83.28-1.45.45a20.4,20.4,0,0,1-4.93.65,20.66,20.66,0,0,1-4.95-.56c-.62-.16-1.11-.3-1.45-.42a1.9,1.9,0,0,1-.51-.21,3.11,3.11,0,0,1,.54.13c.34.1.84.22,1.45.35a22.53,22.53,0,0,0,4.92.5,22.29,22.29,0,0,0,4.9-.59c.62-.14,1.11-.27,1.45-.38A2,2,0,0,1,495,338.29Z" style="fill:#fff"></path><path d="M492.1,354.48a2.38,2.38,0,0,1-.45.25,9.15,9.15,0,0,1-1.33.54,12.87,12.87,0,0,1-4.67.58,12.67,12.67,0,0,1-4.56-1.18,8.45,8.45,0,0,1-1.25-.7,2.53,2.53,0,0,1-.42-.31s.63.39,1.73.88a13.46,13.46,0,0,0,4.51,1.1,13.69,13.69,0,0,0,4.61-.51C491.42,354.78,492.09,354.44,492.1,354.48Z" style="fill:#fff"></path><path d="M490.3,370.67a3.86,3.86,0,0,1-.52.36,13,13,0,0,1-1.52.84,16.06,16.06,0,0,1-5.5,1.45,15.88,15.88,0,0,1-5.67-.56,12.82,12.82,0,0,1-1.63-.58,3.58,3.58,0,0,1-.57-.28,3.22,3.22,0,0,1,.6.2,15.7,15.7,0,0,0,1.64.52,17.25,17.25,0,0,0,5.61.5,16.83,16.83,0,0,0,5.46-1.39,14.47,14.47,0,0,0,1.54-.77A2.63,2.63,0,0,1,490.3,370.67Z" style="fill:#fff"></path><path d="M477.28,362.91a2.21,2.21,0,0,1-.88.39,4.11,4.11,0,0,1-2.31-.09,4.05,4.05,0,0,1-1.87-1.35,2.08,2.08,0,0,1-.46-.84s.19.31.57.75a4.21,4.21,0,0,0,4,1.38C476.93,363,477.26,362.88,477.28,362.91Z" style="fill:#fff"></path><path d="M495.34,287.53l-1.53,13.52-12.37,11.29a4,4,0,0,1-.48-3.1c.57-1.42-2.82,1.83-2.82,1.83v7.76s-2.12.85-2.83-1-1.12-8.47-1.12-8.47l1-.71a3.58,3.58,0,0,1-1-3.1,11.07,11.07,0,0,1-.71-5.65,16.74,16.74,0,0,1,1.27-4.94l10.13-11.31Z" style="fill:#ffbe9d"></path><path d="M489.1,300.44a21.16,21.16,0,0,1-3.6,4.59,20.51,20.51,0,0,1-4.39,3.83c-.1-.12,1.82-1.87,4-4.19S489,300.35,489.1,300.44Z" style="fill:#eb996e"></path><path d="M480.45,303a19.82,19.82,0,0,1-2.9,3.43,20,20,0,0,1-3.28,3.07,38.55,38.55,0,0,1,6.18-6.5Z" style="fill:#eb996e"></path><path d="M478.74,300a32.24,32.24,0,0,1-2.31,2.81,32.43,32.43,0,0,1-2.22,2.87,11.81,11.81,0,0,1,4.53-5.68Z" style="fill:#eb996e"></path><path d="M477.27,296.77a12.59,12.59,0,0,1-1.81,2.26c-1,1.21-1.79,2.24-1.92,2.16a6.31,6.31,0,0,1,1.53-2.5A6.12,6.12,0,0,1,477.27,296.77Z" style="fill:#eb996e"></path></g><g id="freepik--Shelf--inject-188"><rect x="205.22" y="48.22" width="7.52" height="56.29" transform="translate(417.96 152.73) rotate(180)" style="fill:#6C5DAE"></rect><path d="M205.53,55.89c0,.19,1.58.35,3.52.35s3.53-.16,3.53-.35-1.58-.36-3.53-.36S205.53,55.69,205.53,55.89Z" style="fill:#fafafa"></path><path d="M205.38,54.66c0,.2,1.57.36,3.52.36s3.52-.16,3.52-.36-1.57-.35-3.52-.35S205.38,54.47,205.38,54.66Z" style="fill:#fafafa"></path><path d="M205.53,100.16c0,.19,1.58.35,3.52.35s3.53-.16,3.53-.35-1.58-.36-3.53-.36S205.53,100,205.53,100.16Z" style="fill:#fafafa"></path><path d="M205.38,98.93c0,.2,1.57.36,3.52.36s3.52-.16,3.52-.36-1.57-.35-3.52-.35S205.38,98.74,205.38,98.93Z" style="fill:#fafafa"></path><path d="M209.21,91.58c.19,0,.35-6.45.35-14.4s-.16-14.4-.35-14.4-.36,6.45-.36,14.4S209,91.58,209.21,91.58Z" style="fill:#fafafa"></path><rect x="238.92" y="47.86" width="15.04" height="56.29" transform="translate(492.88 152.01) rotate(180)" style="fill:#263238"></rect><path d="M249.73,104.87a1.2,1.2,0,0,0,.17-.3c.11-.21.26-.52.43-.94a16.11,16.11,0,0,0,1.1-3.82,10,10,0,0,0-.88-6.19,8.17,8.17,0,0,0-2.67-2.94,6.21,6.21,0,0,0-4.33-1,4.57,4.57,0,0,0-2.24,1,3,3,0,0,0-1.08,2.37,3.39,3.39,0,0,0,1.29,2.39,4.73,4.73,0,0,0,2.56,1.09,6.82,6.82,0,0,0,5.33-1.94,8.6,8.6,0,0,0,2.65-5.41,14.54,14.54,0,0,0-.78-6.28,11.6,11.6,0,0,0-3.69-5.49,6.08,6.08,0,0,0-3.25-1.28,4.24,4.24,0,0,0-3.38,1.2,2.78,2.78,0,0,0-.77,1.76,3.26,3.26,0,0,0,.52,1.84,4.86,4.86,0,0,0,3,2.07,7.08,7.08,0,0,0,6.63-2.22A11.06,11.06,0,0,0,253,74.46a15.6,15.6,0,0,0-.65-6.57,9.1,9.1,0,0,0-3.88-5,6.66,6.66,0,0,0-6-.63,3.16,3.16,0,0,0-1.94,2.3,3.63,3.63,0,0,0,.68,2.83,4.69,4.69,0,0,0,5.07,1.34,8.83,8.83,0,0,0,4-2.83,12.82,12.82,0,0,0,3-7.72,12.43,12.43,0,0,0-3.76-9.31,7.58,7.58,0,0,0-.78-.67,1.47,1.47,0,0,0-.29-.2,14.43,14.43,0,0,1,3.19,4.18,12.26,12.26,0,0,1,1.24,6,12.44,12.44,0,0,1-3,7.41,8.28,8.28,0,0,1-3.77,2.64A4.16,4.16,0,0,1,241.65,67a3.07,3.07,0,0,1-.56-2.37,2.55,2.55,0,0,1,1.6-1.84,6,6,0,0,1,5.39.62,8.41,8.41,0,0,1,3.58,4.65,15,15,0,0,1,.6,6.28,10.4,10.4,0,0,1-2.41,5.94,6.4,6.4,0,0,1-5.95,2,4.17,4.17,0,0,1-2.59-1.75,2.17,2.17,0,0,1,.17-2.75,3.53,3.53,0,0,1,2.82-1A5.34,5.34,0,0,1,247.17,78a11,11,0,0,1,3.47,5.15,14,14,0,0,1,.77,6,8,8,0,0,1-2.42,5A6.23,6.23,0,0,1,244.14,96,3.58,3.58,0,0,1,240.78,93a2.4,2.4,0,0,1,.88-2,4,4,0,0,1,2-.93,5.74,5.74,0,0,1,4,.9,7.92,7.92,0,0,1,2.57,2.76,9.72,9.72,0,0,1,1,6,17.93,17.93,0,0,1-1,3.81A13.53,13.53,0,0,0,249.73,104.87Z" style="fill:#fafafa"></path><rect x="212.62" y="52.91" width="26.1" height="51.26" transform="translate(451.33 157.08) rotate(180)" style="fill:#6C5DAE"></rect><g style="opacity:0.2"><rect x="212.62" y="52.91" width="26.1" height="51.26" transform="translate(451.33 157.08) rotate(180)"></rect></g><path d="M213.51,61.43c0,.19,5.66.35,12.63.35s12.63-.16,12.63-.35-5.65-.36-12.63-.36S213.51,61.23,213.51,61.43Z" style="fill:#e0e0e0"></path><path d="M213.19,65.31c0,.2,5.58.36,12.47.36s12.47-.16,12.47-.36S232.55,65,225.66,65,213.19,65.12,213.19,65.31Z" style="fill:#e0e0e0"></path><path d="M212.35,98.38c0,.19,5.88.35,13.13.35s13.13-.16,13.13-.35S232.73,98,225.48,98,212.35,98.18,212.35,98.38Z" style="fill:#e0e0e0"></path><path d="M212.7,93.81c0,.2,5.73.35,12.8.35s12.79-.15,12.79-.35-5.73-.35-12.79-.35S212.7,93.61,212.7,93.81Z" style="fill:#e0e0e0"></path><rect x="112.08" y="57.5" width="7.86" height="46.8" transform="translate(232.03 161.8) rotate(180)" style="fill:#6C5DAE"></rect><g style="opacity:0.30000000000000004"><rect x="112.08" y="57.5" width="7.86" height="46.8" transform="translate(232.03 161.8) rotate(180)"></rect></g><rect x="92.37" y="50.98" width="19.57" height="53.32" transform="translate(204.31 155.27) rotate(180)" style="fill:#e0e0e0"></rect><path d="M92.14,54.83c0-.17,4.48-.3,10-.3s10,.13,10,.3a86.29,86.29,0,0,1-10,.29A86.54,86.54,0,0,1,92.14,54.83Z" style="fill:#fafafa"></path><path d="M93.23,57.36c0-.17,4.23-.3,9.45-.3s9.45.13,9.45.3a77.27,77.27,0,0,1-9.45.29A77.27,77.27,0,0,1,93.23,57.36Z" style="fill:#fafafa"></path><path d="M101.6,93.79c-.17,0-.3-7.07-.3-15.78s.13-15.78.3-15.78.29,7.07.29,15.78S101.76,93.79,101.6,93.79Z" style="fill:#fafafa"></path><path d="M92.37,98.66a79.42,79.42,0,0,1,9.58-.29,79.42,79.42,0,0,1,9.58.29c0,.17-4.29.3-9.58.3S92.37,98.83,92.37,98.66Z" style="fill:#fafafa"></path><path d="M92.37,101a82.07,82.07,0,0,1,9.82-.3,81.93,81.93,0,0,1,9.82.3,81.93,81.93,0,0,1-9.82.3A82.07,82.07,0,0,1,92.37,101Z" style="fill:#fafafa"></path><rect x="119.82" y="50.98" width="15.72" height="53.32" transform="translate(255.36 155.27) rotate(180)" style="fill:#6C5DAE"></rect><path d="M119.72,75.47a13.31,13.31,0,0,1,2.43,1.5l5.68,3.88,5.66,3.9a13.48,13.48,0,0,1,2.27,1.72,12.84,12.84,0,0,1-2.5-1.37c-1.51-.92-3.55-2.24-5.77-3.76s-4.19-3-5.59-4A13.66,13.66,0,0,1,119.72,75.47Z" style="fill:#fafafa"></path><path d="M119.65,67.12a83.12,83.12,0,0,1,8,5.83,85.26,85.26,0,0,1,7.67,6.31,82.29,82.29,0,0,1-8-5.84A84.26,84.26,0,0,1,119.65,67.12Z" style="fill:#fafafa"></path><rect x="185.9" y="65.63" width="9.29" height="11.04" style="fill:#f5f5f5"></rect><rect x="144.25" y="64.91" width="41.97" height="12.45" style="fill:#263238"></rect><path d="M195.47,66H185.1v-1h10.37a.52.52,0,0,1,.52.52h0A.52.52,0,0,1,195.47,66Z" style="fill:#263238"></path><path d="M195.47,77.36H185.1v-1h10.37a.52.52,0,0,1,.52.53h0A.52.52,0,0,1,195.47,77.36Z" style="fill:#263238"></path><rect x="177.96" y="64.91" width="4.96" height="12.45" style="fill:#ebebeb"></rect><rect x="148.24" y="65.04" width="4.96" height="12.45" style="fill:#ebebeb"></rect><path d="M195.19,67.45s-2,.06-4.49.06-4.49,0-4.49-.06,2,0,4.49,0S195.19,67.42,195.19,67.45Z" style="fill:#e0e0e0"></path><path d="M195.19,69.11s-2,0-4.49,0-4.49,0-4.49,0,2-.06,4.49-.06S195.19,69.08,195.19,69.11Z" style="fill:#e0e0e0"></path><path d="M195.19,71.15s-2,0-4.49,0-4.49,0-4.49,0,2-.06,4.49-.06S195.19,71.12,195.19,71.15Z" style="fill:#e0e0e0"></path><path d="M195.19,73.19s-2,0-4.49,0-4.49,0-4.49,0,2-.06,4.49-.06S195.19,73.15,195.19,73.19Z" style="fill:#e0e0e0"></path><path d="M195.19,75.22s-2,.06-4.49.06-4.49,0-4.49-.06,2,0,4.49,0S195.19,75.19,195.19,75.22Z" style="fill:#e0e0e0"></path><rect x="156.42" y="70.03" width="18.88" height="2.24" style="fill:#ebebeb"></rect><rect x="185.67" y="77.61" width="9.43" height="6.73" style="fill:#fafafa"></rect><rect x="145.64" y="77.36" width="40.13" height="7.22" style="fill:#455a64"></rect><path d="M185.48,77.85h10.13a.25.25,0,0,0,.25-.24h0a.25.25,0,0,0-.25-.25H185.48Z" style="fill:#455a64"></path><path d="M185.48,84.58h10.13a.25.25,0,0,0,.25-.25h0a.25.25,0,0,0-.25-.24H185.48Z" style="fill:#455a64"></path><path d="M195.1,78.88s-2.09.06-4.67.06-4.66,0-4.66-.06,2.09,0,4.66,0S195.1,78.85,195.1,78.88Z" style="fill:#e0e0e0"></path><path d="M195.1,80.16s-2.09,0-4.67,0-4.66,0-4.66,0,2.09-.06,4.66-.06S195.1,80.13,195.1,80.16Z" style="fill:#e0e0e0"></path><path d="M195.1,81.43s-2.09,0-4.67,0-4.66,0-4.66,0,2.09-.06,4.66-.06S195.1,81.4,195.1,81.43Z" style="fill:#e0e0e0"></path><path d="M195.1,82.7s-2.09.06-4.67.06-4.66,0-4.66-.06,2.09,0,4.66,0S195.1,82.67,195.1,82.7Z" style="fill:#e0e0e0"></path><rect x="186.9" y="85.22" width="9.62" height="18.24" style="fill:#ebebeb"></rect><rect x="141.72" y="84.58" width="45.18" height="19.77" style="fill:#6C5DAE"></rect><path d="M197.28,104.35H185.67v-1.28h11.61a.64.64,0,0,1,.64.64h0A.64.64,0,0,1,197.28,104.35Z" style="fill:#6C5DAE"></path><path d="M197.28,85.86H185.67V84.58h11.61a.64.64,0,0,1,.64.64h0A.64.64,0,0,1,197.28,85.86Z" style="fill:#6C5DAE"></path><path d="M196.53,87.66s-2.16.06-4.82.06-4.81,0-4.81-.06,2.16,0,4.81,0S196.53,87.63,196.53,87.66Z" style="fill:#e0e0e0"></path><path d="M196.53,90s-2.16.06-4.82.06-4.81,0-4.81-.06,2.16,0,4.81,0S196.53,90,196.53,90Z" style="fill:#e0e0e0"></path><path d="M196.53,92.34s-2.16.06-4.82.06-4.81,0-4.81-.06,2.16,0,4.81,0S196.53,92.31,196.53,92.34Z" style="fill:#e0e0e0"></path><path d="M196.53,94.68s-2.16,0-4.82,0-4.81,0-4.81,0,2.16-.06,4.81-.06S196.53,94.65,196.53,94.68Z" style="fill:#e0e0e0"></path><path d="M196.53,97s-2.16,0-4.82,0-4.81,0-4.81,0,2.16-.06,4.81-.06S196.53,97,196.53,97Z" style="fill:#e0e0e0"></path><path d="M196.53,99.36s-2.16,0-4.82,0-4.81,0-4.81,0,2.16-.06,4.81-.06S196.53,99.33,196.53,99.36Z" style="fill:#e0e0e0"></path><path d="M196.53,101.7s-2.16,0-4.82,0-4.81,0-4.81,0,2.16-.06,4.81-.06S196.53,101.67,196.53,101.7Z" style="fill:#e0e0e0"></path><path d="M157.18,95.55v1.1c0,1.32-.66,2.08-1.94,2.08s-1.94-.76-1.94-2.08V92.34c0-1.33.66-2.08,1.94-2.08s1.94.75,1.94,2.08v.8H156v-.88c0-.59-.26-.82-.67-.82s-.68.23-.68.82v4.47c0,.59.26.8.68.8s.67-.21.67-.8V95.55Z" style="fill:#ebebeb"></path><path d="M157.87,92.34a2,2,0,1,1,3.95,0v4.31a2,2,0,1,1-3.95,0Zm1.3,4.39c0,.59.26.81.67.81s.68-.22.68-.81V92.26c0-.59-.26-.82-.68-.82s-.67.23-.67.82Z" style="fill:#ebebeb"></path><path d="M162.66,90.35H164v7.1h2.14v1.18h-3.44Z" style="fill:#ebebeb"></path><path d="M166.56,92.34a2,2,0,1,1,3.95,0v4.31a2,2,0,1,1-3.95,0Zm1.3,4.39c0,.59.26.81.68.81s.67-.22.67-.81V92.26c0-.59-.26-.82-.67-.82s-.68.23-.68.82Z" style="fill:#ebebeb"></path><path d="M172.59,90.35v6.39c0,.59.26.8.68.8s.67-.21.67-.8V90.35h1.23v6.31c0,1.32-.66,2.08-1.94,2.08s-1.94-.76-1.94-2.08V90.35Z" style="fill:#ebebeb"></path><path d="M178.78,98.63a2.51,2.51,0,0,1-.12-1V96.31c0-.76-.26-1-.85-1h-.45v3.37h-1.3V90.35h2c1.35,0,1.93.63,1.93,1.91v.65a1.65,1.65,0,0,1-.85,1.68c.65.27.86.9.86,1.76v1.28a2.4,2.4,0,0,0,.14,1Zm-1.42-7.09v2.54h.51c.48,0,.78-.21.78-.88v-.81c0-.59-.2-.85-.66-.85Z" style="fill:#ebebeb"></path><path d="M156.9,80.2h-1L156,80h2.18l-.05.24h-.95l-.49,2.45h-.28Z" style="fill:#e0e0e0"></path><path d="M160,80.63l-1.48,2.28c-.25.38-.44.5-.73.5a.63.63,0,0,1-.48-.18l.15-.2a.48.48,0,0,0,.36.15c.17,0,.3-.08.46-.33l.14-.21-.5-2h.28l.41,1.72,1.11-1.72Z" style="fill:#e0e0e0"></path><path d="M162.25,81.46a1.14,1.14,0,0,1-1.14,1.21.76.76,0,0,1-.77-.45l-.23,1.17h-.27l.55-2.76h.26l-.07.32a1,1,0,0,1,.79-.34A.81.81,0,0,1,162.25,81.46Zm-.27,0a.59.59,0,0,0-.67-.63.88.88,0,0,0-.87,1,.59.59,0,0,0,.67.62A.88.88,0,0,0,162,81.48Z" style="fill:#e0e0e0"></path><path d="M162.57,81.81a1.15,1.15,0,0,1,1.17-1.2.83.83,0,0,1,.92.85,1.16,1.16,0,0,1-1.17,1.21A.84.84,0,0,1,162.57,81.81Zm1.82-.33a.6.6,0,0,0-.67-.63.89.89,0,0,0-.88,1,.59.59,0,0,0,.67.62A.88.88,0,0,0,164.39,81.48Z" style="fill:#e0e0e0"></path><path d="M167.27,80.63l-.35,1.77a1.07,1.07,0,0,1-1.18,1,1.32,1.32,0,0,1-.9-.3l.17-.21a1,1,0,0,0,.75.27.8.8,0,0,0,.88-.72l.05-.23a1.06,1.06,0,0,1-.81.35.8.8,0,0,1-.89-.81,1.12,1.12,0,0,1,1.15-1.15.78.78,0,0,1,.79.46l.08-.44Zm-.46.81c0-.37-.25-.59-.67-.59a.86.86,0,0,0-.88.89c0,.37.25.59.67.59A.86.86,0,0,0,166.81,81.44Z" style="fill:#e0e0e0"></path><path d="M169.05,80.61l-.05.27h-.07a.8.8,0,0,0-.82.75l-.2,1h-.28l.4-2h.26l-.07.36A.93.93,0,0,1,169.05,80.61Z" style="fill:#e0e0e0"></path><path d="M171.37,80.63l-.4,2h-.26l.06-.32a1,1,0,0,1-.79.34.82.82,0,0,1-.88-.86,1.14,1.14,0,0,1,1.14-1.2.75.75,0,0,1,.77.44l.09-.42Zm-.45.85a.6.6,0,0,0-.67-.63.89.89,0,0,0-.87,1,.58.58,0,0,0,.66.62A.88.88,0,0,0,170.92,81.48Z" style="fill:#e0e0e0"></path><path d="M174,81.46a1.14,1.14,0,0,1-1.14,1.21.75.75,0,0,1-.77-.45l-.23,1.17h-.27l.55-2.76h.26l-.07.32a1,1,0,0,1,.79-.34A.81.81,0,0,1,174,81.46Zm-.27,0a.6.6,0,0,0-.67-.63.88.88,0,0,0-.87,1,.58.58,0,0,0,.66.62A.88.88,0,0,0,173.72,81.48Z" style="fill:#e0e0e0"></path><path d="M176.44,81.27a1,1,0,0,1,0,.23l-.23,1.15h-.27l.23-1.16a1.1,1.1,0,0,0,0-.18c0-.29-.17-.45-.52-.45a.78.78,0,0,0-.82.7l-.22,1.09h-.27l.57-2.85h.27l-.23,1.13a1,1,0,0,1,.78-.32A.64.64,0,0,1,176.44,81.27Z" style="fill:#e0e0e0"></path><path d="M179,80.63l-1.47,2.28c-.25.38-.44.5-.73.5a.63.63,0,0,1-.48-.18l.14-.2a.5.5,0,0,0,.36.15c.17,0,.31-.08.46-.33l.15-.21-.51-2h.28l.42,1.72,1.1-1.72Z" style="fill:#e0e0e0"></path><rect x="80.26" y="103.98" width="181.87" height="10.38" style="fill:#455a64"></rect><rect x="246.26" y="103.98" width="15.88" height="10.38" style="fill:#263238"></rect></g><g id="freepik--Desk--inject-188"><rect x="115.27" y="306.69" width="312.75" height="13.68" style="fill:#455a64"></rect><path d="M181.52,306.89s0,.06-.1.15-.17.24-.32.41a6.61,6.61,0,0,1-1.58,1.26,8.49,8.49,0,0,1-3,1,21.54,21.54,0,0,1-4.21.19,40.87,40.87,0,0,1-5.07-.58,44.2,44.2,0,0,0-5.78-.69,35.65,35.65,0,0,0-13,2.52c-4.47,1.59-8.64,3.41-12.62,4.51a34.66,34.66,0,0,1-5.76,1.14,24.17,24.17,0,0,1-5.11,0,17.39,17.39,0,0,1-7-2.24,11.19,11.19,0,0,1-2.17-1.62s.06,0,.16.09l.41.31a13.79,13.79,0,0,0,1.68,1.09,17.77,17.77,0,0,0,7,2.1,24.47,24.47,0,0,0,5,0,35.07,35.07,0,0,0,5.69-1.16c3.95-1.11,8.1-2.93,12.59-4.54a35.77,35.77,0,0,1,13.14-2.51,43.81,43.81,0,0,1,5.82.73,41.34,41.34,0,0,0,5,.63,21.43,21.43,0,0,0,4.17-.13,8.65,8.65,0,0,0,3-.93A7.73,7.73,0,0,0,181.52,306.89Z" style="fill:#263238"></path><path d="M147.31,307.1a7.06,7.06,0,0,1-.95.81,21.68,21.68,0,0,1-2.85,1.84,24.84,24.84,0,0,1-4.67,1.89,25.29,25.29,0,0,1-6.09,1,23.36,23.36,0,0,1-10.9-2.25,6.92,6.92,0,0,1-2.63-2.15,3.29,3.29,0,0,1-.43-.83c-.07-.2-.1-.31-.08-.31a9,9,0,0,0,.63,1.05,7,7,0,0,0,2.63,2,24,24,0,0,0,10.77,2.11,25.85,25.85,0,0,0,6-.91,26.33,26.33,0,0,0,4.64-1.8,27.66,27.66,0,0,0,2.89-1.71A8.22,8.22,0,0,1,147.31,307.1Z" style="fill:#263238"></path><path d="M220.7,315.77l.48.17a9.79,9.79,0,0,0,1.44.39,8.5,8.5,0,0,0,5.48-.86l0,.17A13.11,13.11,0,0,0,221.3,313a13.27,13.27,0,0,0-8.83,2.29,1.48,1.48,0,0,0-.69.89,1,1,0,0,0,.59.88,3.71,3.71,0,0,0,1.21.43l1.33.3c1.79.4,3.64.8,5.56,1.08a33.75,33.75,0,0,0,5.9.4,22.19,22.19,0,0,0,3-.29c.51-.09,1-.19,1.51-.32a7.32,7.32,0,0,0,1.46-.47,5,5,0,0,0,1.9-1.37,2.17,2.17,0,0,0,.36-2.1,3.56,3.56,0,0,0-1.49-1.66,12.06,12.06,0,0,0-2.07-1,28.69,28.69,0,0,0-8.69-1.8,36.05,36.05,0,0,0-14.83,2.3,36.93,36.93,0,0,0-8.92,4.87c-1,.74-1.69,1.32-2.16,1.75l-.55.47c-.13.11-.19.16-.2.15l.17-.18.53-.49a26.22,26.22,0,0,1,2.12-1.81,36,36,0,0,1,23.86-7.41,28.36,28.36,0,0,1,8.81,1.8,11.77,11.77,0,0,1,2.14,1.05,3.9,3.9,0,0,1,1.64,1.85,2.52,2.52,0,0,1-.42,2.46,5.09,5.09,0,0,1-2,1.49A7.57,7.57,0,0,1,231,319c-.5.14-1,.24-1.53.33a21.53,21.53,0,0,1-3.09.29,32.61,32.61,0,0,1-6-.42c-1.93-.28-3.78-.69-5.57-1.09l-1.34-.31a4,4,0,0,1-1.31-.47,1.78,1.78,0,0,1-.55-.48,1.06,1.06,0,0,1-.2-.73,1.73,1.73,0,0,1,.83-1.13,13.47,13.47,0,0,1,9-2.3,13.14,13.14,0,0,1,6.89,2.76l.13.1-.14.08a8.61,8.61,0,0,1-5.6.78A6.15,6.15,0,0,1,220.7,315.77Z" style="fill:#263238"></path><path d="M260.94,307.25a1.89,1.89,0,0,1,.31.69,5.35,5.35,0,0,1,.21,2.05,10.18,10.18,0,0,1-3,6,15.34,15.34,0,0,1-2.85,2.42,12.85,12.85,0,0,1-2.74,1.33,13.6,13.6,0,0,1-2,.5,2.37,2.37,0,0,1-.75.06c0-.07,1-.22,2.65-.82a13.69,13.69,0,0,0,2.64-1.37,16.15,16.15,0,0,0,2.76-2.39,10.32,10.32,0,0,0,3.05-5.73A7.4,7.4,0,0,0,260.94,307.25Z" style="fill:#263238"></path><path d="M317.1,319.65a16,16,0,0,0-1.43-1.4,10.19,10.19,0,0,0-4.89-2.2,11,11,0,0,0-3.73.1,16,16,0,0,1-4.36.4,8.61,8.61,0,0,1-4.35-2.13,14.82,14.82,0,0,0-4.36-2.59,16,16,0,0,0-9.7-.15,23.08,23.08,0,0,0-7.18,3.64,39.61,39.61,0,0,0-4.16,3.55l-1.06,1.05a2.41,2.41,0,0,1-.38.35,2.33,2.33,0,0,1,.33-.41c.22-.26.56-.63,1-1.1a34.25,34.25,0,0,1,4.1-3.66,22.77,22.77,0,0,1,7.24-3.76,16.3,16.3,0,0,1,9.93.13,15.15,15.15,0,0,1,4.46,2.65,8.38,8.38,0,0,0,4.16,2.08,16.15,16.15,0,0,0,4.27-.36,11,11,0,0,1,3.82-.06,9.93,9.93,0,0,1,4.94,2.36A6.74,6.74,0,0,1,317.1,319.65Z" style="fill:#263238"></path><path d="M367.25,306.82a3.2,3.2,0,0,1-.35.47c-.24.29-.56.75-1.06,1.27a29.52,29.52,0,0,1-4.57,4.06,37,37,0,0,1-7.92,4.39,32.87,32.87,0,0,1-5.11,1.63,26.48,26.48,0,0,1-5.71.73,28.29,28.29,0,0,1-10.85-2.25,36.61,36.61,0,0,1-7.88-4.47,31.48,31.48,0,0,1-4.53-4.09c-.5-.52-.83-1-1.07-1.27a2.62,2.62,0,0,1-.34-.47,3.28,3.28,0,0,1,.4.42c.26.27.6.71,1.12,1.21a33.67,33.67,0,0,0,4.59,4,37,37,0,0,0,7.85,4.36,28.47,28.47,0,0,0,10.7,2.2,26.62,26.62,0,0,0,5.64-.72,33.25,33.25,0,0,0,5.06-1.59,37.91,37.91,0,0,0,7.89-4.28,32,32,0,0,0,4.62-3.94c.51-.5.85-.95,1.11-1.22A3.7,3.7,0,0,1,367.25,306.82Z" style="fill:#263238"></path><path d="M360.08,306.69s-.08.09-.26.22-.45.32-.81.54a34.31,34.31,0,0,1-3.14,1.78,32.86,32.86,0,0,1-4.95,2,22,22,0,0,1-6.45,1.11,27.55,27.55,0,0,1-14.58-4.72c-.35-.24-.61-.45-.78-.58s-.27-.22-.26-.23.41.24,1.13.68a29.3,29.3,0,0,0,3.14,1.7A27.39,27.39,0,0,0,344.47,312a21.86,21.86,0,0,0,6.35-1.06,33.93,33.93,0,0,0,4.93-1.92c1.37-.64,2.45-1.23,3.18-1.65A12.94,12.94,0,0,1,360.08,306.69Z" style="fill:#263238"></path><path d="M391.88,308.09a1.67,1.67,0,0,1-.36,0l-1-.06-.74-.06h-.88c-.63,0-1.35,0-2.15,0l-1.24.07-1.34.16c-.93.08-1.91.3-2.95.47a41.08,41.08,0,0,0-12.66,5c-.88.57-1.74,1.07-2.49,1.64l-1.1.79-1,.78a21,21,0,0,0-1.62,1.41l-.66.59-.51.53-.73.73a1.61,1.61,0,0,1-.27.24,1.39,1.39,0,0,1,.22-.29l.67-.78.49-.56.64-.62c.45-.44,1-.95,1.59-1.46q.46-.37,1-.81l1.1-.81c.74-.58,1.6-1.1,2.49-1.68a43.26,43.26,0,0,1,6.17-3.07,42.36,42.36,0,0,1,6.6-1.94c1.05-.16,2-.37,3-.44l1.36-.14,1.25,0a19,19,0,0,1,2.16,0l.89,0,.74.09,1,.14A1.29,1.29,0,0,1,391.88,308.09Z" style="fill:#263238"></path><path d="M322.72,319.37a15.42,15.42,0,0,0-1.72-2,15.86,15.86,0,0,0-6.3-3.52,33.23,33.23,0,0,0-4.92-1.09c-1.79-.29-3.73-.51-5.75-.86a47.82,47.82,0,0,1-6.24-1.56,40.85,40.85,0,0,0-6.67-1.61,27.7,27.7,0,0,0-13,1.79,46.25,46.25,0,0,0-5.28,2.37c-1.62.83-3.1,1.65-4.45,2.41-2.69,1.52-4.83,2.82-6.31,3.72l-1.7,1-.45.27-.15.08s0-.05.13-.12l.43-.29c.37-.26.93-.64,1.66-1.11,1.45-.94,3.58-2.27,6.25-3.83,1.34-.78,2.82-1.61,4.44-2.45a45.82,45.82,0,0,1,5.3-2.42,27.73,27.73,0,0,1,13.15-1.84,40,40,0,0,1,6.72,1.62,48.68,48.68,0,0,0,6.2,1.58c2,.36,3.94.59,5.74.89a33.43,33.43,0,0,1,4.95,1.15,15.72,15.72,0,0,1,6.33,3.67A8.17,8.17,0,0,1,322.72,319.37Z" style="fill:#263238"></path><path d="M252.28,306.89a3,3,0,0,1-.05.88,9.82,9.82,0,0,1-.61,2.31,13.26,13.26,0,0,1-4.81,6.15,32.8,32.8,0,0,1-7.12,3.28c-.95.31-1.73.54-2.27.68a4.33,4.33,0,0,1-.86.18,3.32,3.32,0,0,1,.81-.32l2.23-.8a36.84,36.84,0,0,0,7-3.35,13.63,13.63,0,0,0,4.77-5.93A18.15,18.15,0,0,0,252.28,306.89Z" style="fill:#263238"></path><path d="M179.68,320.37a5,5,0,0,1,.76-.73c.5-.46,1.26-1.09,2.22-1.83a65.54,65.54,0,0,1,8-5.14c3.25-1.78,6.29-3.21,8.49-4.22,1.1-.51,2-.91,2.62-1.18a6.33,6.33,0,0,1,1-.38,5.13,5.13,0,0,1-.92.52l-2.57,1.28c-2.18,1.08-5.19,2.54-8.42,4.32a77.36,77.36,0,0,0-8,5c-1,.71-1.77,1.3-2.3,1.72A5.77,5.77,0,0,1,179.68,320.37Z" style="fill:#263238"></path><path d="M194.41,307.45c0,.05-.72-.09-2,0a14.21,14.21,0,0,0-5.22,1.59,46.76,46.76,0,0,0-6.77,4.54,34.71,34.71,0,0,1-4.09,2.65,22.46,22.46,0,0,1-4.88,1.88,45.82,45.82,0,0,1-10,1.2c-3.09.09-5.87,0-8.19.12a39.5,39.5,0,0,0-5.49.54c-.64.12-1.13.21-1.47.29a2.76,2.76,0,0,1-.51.1,1.88,1.88,0,0,1,.49-.17c.33-.11.83-.23,1.46-.37a36.66,36.66,0,0,1,5.5-.66c2.34-.13,5.12-.1,8.2-.21a45.67,45.67,0,0,0,9.91-1.22,22.1,22.1,0,0,0,4.8-1.84,35.11,35.11,0,0,0,4.05-2.59,45.46,45.46,0,0,1,6.86-4.51,13.93,13.93,0,0,1,5.33-1.49,9.23,9.23,0,0,1,1.51.05Z" style="fill:#263238"></path><path d="M389.46,306.64c0,.1-13.07.19-29.19.19s-29.19-.09-29.19-.19,13.07-.2,29.19-.2S389.46,306.53,389.46,306.64Z" style="fill:#263238"></path><polygon points="127.02 479.5 122.57 479.5 120.04 319.31 129.55 319.31 127.02 479.5" style="fill:#455a64"></polygon><polygon points="413.54 479.5 409.1 479.5 411.32 319.78 420.83 319.78 413.54 479.5" style="fill:#455a64"></polygon><rect x="388.36" y="306.69" width="39.65" height="13.68" style="fill:#263238"></rect><rect x="229.03" y="370.49" width="79.25" height="11.84" style="fill:#455a64"></rect><polygon points="248.93 382.33 223.87 479.53 229.27 479.53 256.75 382.33 248.93 382.33" style="fill:#455a64"></polygon><polygon points="289.14 382.33 314.38 479.53 308.98 479.53 281.32 382.33 289.14 382.33" style="fill:#455a64"></polygon><path d="M281.4,382.63c.08.09-7.19,6.62-16.24,14.58s-16.45,14.34-16.53,14.25,7.19-6.62,16.24-14.58S281.32,382.54,281.4,382.63Z" style="fill:#263238"></path><path d="M293.64,411.78c-.08.09-8.6-6.46-19-14.62s-18.84-14.87-18.76-15,8.59,6.45,19,14.62S293.71,411.68,293.64,411.78Z" style="fill:#263238"></path><path d="M294.07,382.33c0,.12-10.75.22-24,.22s-24-.1-24-.22,10.75-.22,24-.22S294.07,382.21,294.07,382.33Z" style="fill:#263238"></path><path d="M396.51,235.13a2.43,2.43,0,1,1,4.81.72l-10.65,65H385.8Z" style="fill:#263238"></path><path d="M400.31,235.93l-43.92-48.25-.32.53-2.13,3.52,42.77,47.46a2.43,2.43,0,1,0,3.6-3.26Z" style="fill:#263238"></path><path d="M397.09,237.18s-.08-.11-.06-.31a1.19,1.19,0,0,1,.4-.74,1.31,1.31,0,0,1,1.27-.24,1.36,1.36,0,0,1,0,2.58,1.31,1.31,0,0,1-1.27-.24,1.18,1.18,0,0,1-.4-.75c0-.2,0-.3.06-.3s.08.45.56.77a.94.94,0,0,0,.9.09,1,1,0,0,0,.59-.86,1,1,0,0,0-.59-.87,1,1,0,0,0-.9.09C397.17,236.73,397.17,237.19,397.09,237.18Z" style="fill:#455a64"></path><path d="M397.76,233.12a6.78,6.78,0,0,1,1.32,1.21c.38.41.85.85,1.32,1.45a3.09,3.09,0,0,1,.69,2.4,2.45,2.45,0,0,1-1.79,1.76,2.64,2.64,0,0,1-2-.28,3.1,3.1,0,0,1-1.3-1.28c.06-.06.53.49,1.47,1a2.29,2.29,0,0,0,1.73.15,2.06,2.06,0,0,0,1.43-1.42,2.69,2.69,0,0,0-.58-2c-.41-.57-.86-1.05-1.21-1.48A6.44,6.44,0,0,1,397.76,233.12Z" style="fill:#455a64"></path><path d="M366.52,306.62h40s-5.1-6.37-18.42-6.37C375.69,300.25,368.31,303.9,366.52,306.62Z" style="fill:#263238"></path><polygon points="356.65 180.03 358.68 176.98 356.17 175.05 354.01 178.12 356.65 180.03" style="fill:#263238"></polygon><path d="M360.09,181.87l-8.75-6.35-8.41,10.11c-14.57,2.35-20.45,11.52-20.45,11.52l26.09,20c8.93-9.87,4.7-24,4.7-24Z" style="fill:#6C5DAE"></path><path d="M353.27,193.15a40.94,40.94,0,0,1-5.31-3.56,41.9,41.9,0,0,1-5-4,42.72,42.72,0,0,1,5.32,3.56A42.25,42.25,0,0,1,353.27,193.15Z" style="fill:#263238"></path><path d="M335.83,257.12l-20.89,46.21a6.85,6.85,0,0,1-5.59,3.49L213,306.69h0a4.1,4.1,0,0,1,4-3.6l36.57-.81,18.72-44.93a3.87,3.87,0,0,1,3.54-2.38l58.38-.44A1.83,1.83,0,0,1,335.83,257.12Z" style="fill:#263238"></path><path d="M255.3,307.22a1.91,1.91,0,0,0,.28-.51l.7-1.49,2.44-5.53c2-4.69,4.81-11.19,7.78-18.39s5.61-13.77,7.43-18.54c.91-2.39,1.63-4.33,2.1-5.68.21-.62.38-1.14.53-1.56a2.08,2.08,0,0,0,.14-.56,2.76,2.76,0,0,0-.26.52l-.63,1.52-2.27,5.6L266,281.07c-3,7.16-5.63,13.65-7.62,18.45l-2.27,5.61-.59,1.54A2,2,0,0,0,255.3,307.22Z" style="fill:#455a64"></path><path d="M293.1,279.52a3,3,0,1,0,3-3A3,3,0,0,0,293.1,279.52Z" style="fill:#fff"></path></g><g id="freepik--Plants--inject-188"><path d="M83.71,411.59c-.07.09-.66-.26-1.31-.79s-1.12-1-1.05-1.1.65.26,1.31.79S83.78,411.5,83.71,411.59Z" style="fill:#263238"></path><path d="M101.53,385a20.44,20.44,0,0,0-.61-7.4c-.78-2.36-2.6-4.54-5-5-2.79-.58-5.64,1.18-7.2,3.55s-2.1,5.27-2.56,8.07a285.66,285.66,0,0,0-3.49,58.57L94,444.29C99,423.85,100.62,406,101.53,385Z" style="fill:#455a64"></path><path d="M94.3,372.42l-.06.18-.18.52c-.19.48-.44,1.14-.76,2-.16.42-.37.89-.54,1.42l-.56,1.72c-.2.62-.41,1.29-.63,2s-.39,1.46-.59,2.25a99.64,99.64,0,0,0-2.2,11.28c-.62,4.28-1,9-1.34,14-.58,10-.68,19-.93,25.6-.12,3.27-.24,5.92-.36,7.75-.06.89-.11,1.59-.14,2.11l-.05.55q0,.18,0,.18s0-.06,0-.19v-.55c0-.51,0-1.22.07-2.1.08-1.84.15-4.49.23-7.76.18-6.55.23-15.61.81-25.61.32-5,.74-9.75,1.38-14a94,94,0,0,1,2.29-11.3c.22-.79.42-1.54.62-2.26s.46-1.36.67-2,.4-1.19.58-1.72.41-1,.58-1.41c.35-.82.63-1.47.83-1.95l.23-.5C94.26,372.47,94.29,372.42,94.3,372.42Z" style="fill:#263238"></path><path d="M95.35,372.43a8,8,0,0,1,1.39,2.35,17.38,17.38,0,0,1,1,7.37c-.3,6.3-.86,15-1.61,24.55s-1.59,18.23-2.26,24.49c-.34,3.13-.63,5.66-.85,7.41-.1.85-.19,1.52-.25,2,0,.21-.06.38-.08.52a1.32,1.32,0,0,1,0,.18s0-.06,0-.18l0-.53c0-.49.11-1.17.19-2,.17-1.79.41-4.31.71-7.42.6-6.26,1.39-14.92,2.14-24.49s1.36-18.25,1.73-24.53a17.74,17.74,0,0,0-.89-7.3A14.67,14.67,0,0,0,95.35,372.43Z" style="fill:#263238"></path><path d="M103.25,401.91a6,6,0,0,1-2.16-.56,6.07,6.07,0,0,1-2-.94,6,6,0,0,1,2.16.56A6.07,6.07,0,0,1,103.25,401.91Z" style="fill:#263238"></path><path d="M104.62,390.3a6.93,6.93,0,0,1-2.05,1.14,7,7,0,0,1-2.22.77,6.93,6.93,0,0,1,2.05-1.14A7,7,0,0,1,104.62,390.3Z" style="fill:#263238"></path><path d="M103.91,380.82c0,.12-.77.15-1.7.09a3.63,3.63,0,0,1-1.67-.32,7,7,0,0,1,3.37.23Z" style="fill:#263238"></path><path d="M92.15,374.75c-.09.06-.59-.56-1.11-1.39a4.06,4.06,0,0,1-.77-1.6c.1-.06.59.56,1.11,1.39S92.25,374.69,92.15,374.75Z" style="fill:#263238"></path><path d="M88.27,380.48a6.47,6.47,0,0,1-3.23-.07,6.47,6.47,0,0,1,3.23.07Z" style="fill:#263238"></path><path d="M85.48,392a4.1,4.1,0,0,1-1.7-.47c-.9-.36-1.59-.74-1.55-.85a4.1,4.1,0,0,1,1.7.47C84.83,391.46,85.52,391.84,85.48,392Z" style="fill:#263238"></path><path d="M85.18,401.59c0,.11-.62.34-1.45.51s-1.51.22-1.53.11.63-.34,1.45-.51S85.16,401.48,85.18,401.59Z" style="fill:#263238"></path><path d="M83.87,417.36c0,.11-.67.33-1.54.48a3.25,3.25,0,0,1-1.61.08c0-.11.67-.32,1.54-.48A3.25,3.25,0,0,1,83.87,417.36Z" style="fill:#263238"></path><path d="M83,426.06c0,.1-.52.51-1.28.91s-1.43.65-1.48.55.52-.5,1.28-.91A3.4,3.4,0,0,1,83,426.06Z" style="fill:#263238"></path><path d="M90.11,436c-.1.05-.6-.64-1.12-1.55a4.85,4.85,0,0,1-.77-1.74c.1-.06.6.63,1.12,1.54A4.79,4.79,0,0,1,90.11,436Z" style="fill:#263238"></path><path d="M92.16,419.53c.08.08-.48.75-1.25,1.5s-1.45,1.3-1.53,1.22.48-.76,1.25-1.51S92.08,419.44,92.16,419.53Z" style="fill:#263238"></path><path d="M91.7,410.91c-.08.08-.6-.35-1.15-1s-.94-1.15-.86-1.22.6.34,1.16.94S91.79,410.83,91.7,410.91Z" style="fill:#263238"></path><path d="M93.11,399.9c.09.08-.38.73-1,1.46s-1.26,1.27-1.34,1.2.38-.73,1-1.47S93,399.83,93.11,399.9Z" style="fill:#263238"></path><path d="M93.91,391.91c-.08.08-.73-.43-1.45-1.14s-1.24-1.35-1.16-1.43.72.43,1.45,1.14S94,391.83,93.91,391.91Z" style="fill:#263238"></path><path d="M95.47,381.11a4.11,4.11,0,0,1-.73,1.62c-.5.83-1,1.46-1.08,1.41a4.05,4.05,0,0,1,.73-1.62C94.89,381.68,95.37,381.05,95.47,381.11Z" style="fill:#263238"></path><path d="M98.4,371.1c.1.06-.19.78-.64,1.62s-.9,1.48-1,1.43.19-.78.64-1.62S98.3,371.05,98.4,371.1Z" style="fill:#263238"></path><path d="M101.73,375.65c0,.1-.41.42-1,.71s-1.14.45-1.19.35.41-.42,1-.72S101.68,375.55,101.73,375.65Z" style="fill:#263238"></path><path d="M101.81,411.59a4.49,4.49,0,0,1-2.23-.54,4.68,4.68,0,0,1-1.93-1.23,11.39,11.39,0,0,1,2.09.86A11.61,11.61,0,0,1,101.81,411.59Z" style="fill:#263238"></path><path d="M100.45,419.21c0,.11-.66.33-1.53.5a3.26,3.26,0,0,1-1.61.1c0-.11.66-.33,1.53-.5S100.43,419.09,100.45,419.21Z" style="fill:#263238"></path><path d="M98.78,432.26A6.35,6.35,0,0,1,96,428.7a13.81,13.81,0,0,1,1.4,1.78A14.29,14.29,0,0,1,98.78,432.26Z" style="fill:#263238"></path><path d="M80.47,438.23c-.08-.09.39-.6,1-1.15s1.23-.93,1.3-.85-.39.6-1,1.16S80.54,438.31,80.47,438.23Z" style="fill:#263238"></path><path d="M75.2,409.74c-.74-2.32-2.13-5-4.56-5.05A4,4,0,0,0,67.22,407a8.43,8.43,0,0,0-.92,4.19,109.48,109.48,0,0,0,5.22,30.34h8.9A105.91,105.91,0,0,0,75.2,409.74Z" style="fill:#455a64"></path><path d="M59.12,395.16a9.9,9.9,0,0,0-9.26-7.9c-3.93.69-5.46,4.56-5.93,8.52s.77,7.91,2,11.71q5.87,18.31,11.71,36.62l11.07-1.21C65.18,426.55,63.17,411.39,59.12,395.16Z" style="fill:#455a64"></path><path d="M70.64,404.69a8.74,8.74,0,0,0-.75,1.26,8.15,8.15,0,0,0-.42,3.93c.17,1.69.37,3.73.65,6s.69,4.68,1.19,7.23c1,5.11,2.14,9.7,2.86,13,.36,1.67.64,3,.81,4,.08.43.14.79.19,1.08s0,.39,0,.39a1.89,1.89,0,0,1-.11-.37c-.07-.29-.16-.64-.26-1.07-.24-1-.56-2.32-.94-3.93-.79-3.33-2-7.9-3-13-.5-2.56-.89-5-1.16-7.27-.15-1.12-.24-2.19-.33-3.19s-.19-1.93-.24-2.79a8.14,8.14,0,0,1,.56-4A3.47,3.47,0,0,1,70.64,404.69Z" style="fill:#263238"></path><path d="M50,386.94a13.36,13.36,0,0,0-1.34,1.8A12.49,12.49,0,0,0,47,394.53a26.86,26.86,0,0,0,1.36,8.91c1,3.29,2,6.9,3.16,10.7l5.67,19.46c.69,2.47,1.26,4.48,1.67,5.92l.43,1.61a3.46,3.46,0,0,1,.13.57,2.3,2.3,0,0,1-.21-.55c-.12-.4-.29-.93-.5-1.59l-1.8-5.87-5.78-19.44C50,410.45,49,406.84,48,403.54a26.68,26.68,0,0,1-1.29-9,12.39,12.39,0,0,1,1.84-5.86A6.71,6.71,0,0,1,50,386.94Z" style="fill:#263238"></path><path d="M66.27,441.72a3.22,3.22,0,0,1-.25-.53c-.14-.35-.38-.87-.63-1.56-.52-1.36-1.2-3.36-1.9-5.87s-1.39-5.55-2.06-8.93-1.35-7.1-2.09-11-1.62-7.58-2.62-10.87a60.41,60.41,0,0,0-3.22-8.53,46,46,0,0,0-3-5.38c-.38-.62-.72-1.06-.93-1.39a3.75,3.75,0,0,1-.31-.5,5,5,0,0,1,.38.45c.23.31.59.75,1,1.36a40.66,40.66,0,0,1,3.11,5.34,57.21,57.21,0,0,1,3.32,8.54,108.23,108.23,0,0,1,2.66,10.9c.73,3.9,1.42,7.62,2.06,11s1.3,6.41,2,8.92,1.29,4.53,1.77,5.9c.23.69.44,1.22.56,1.58A2.22,2.22,0,0,1,66.27,441.72Z" style="fill:#263238"></path><path d="M46.11,405.66c0,.11-.57.35-1.34.54s-1.42.25-1.44.14.57-.35,1.34-.54A2.89,2.89,0,0,1,46.11,405.66Z" style="fill:#263238"></path><path d="M44.94,398.11a5.31,5.31,0,0,1-1.87.2,5.57,5.57,0,0,1-1.87-.05,3.79,3.79,0,0,1,1.86-.35A3.78,3.78,0,0,1,44.94,398.11Z" style="fill:#263238"></path><path d="M46.19,391.21c-.08.09-.68-.3-1.35-.87s-1.15-1.09-1.08-1.18.68.3,1.35.87S46.26,391.13,46.19,391.21Z" style="fill:#263238"></path><path d="M49.56,384.83c.11,0,.08.56.06,1.21s0,1.19-.13,1.21-.29-.52-.27-1.22S49.45,384.8,49.56,384.83Z" style="fill:#263238"></path><path d="M56.46,387.84c.09.06-.18.61-.61,1.22s-.84,1-.93,1,.18-.61.6-1.22S56.37,387.77,56.46,387.84Z" style="fill:#263238"></path><path d="M60.93,395.61c0,.11-.53.44-1.28.75s-1.39.46-1.43.36.53-.44,1.28-.74S60.89,395.51,60.93,395.61Z" style="fill:#263238"></path><path d="M63.65,403.62a3.37,3.37,0,0,1-1.75.76,3.36,3.36,0,0,1-1.92.07,7.1,7.1,0,0,1,1.83-.47A6.94,6.94,0,0,1,63.65,403.62Z" style="fill:#263238"></path><path d="M51.18,401.34c-.11,0,0-.58.18-1.23s.45-1.15.56-1.11,0,.58-.18,1.23S51.29,401.38,51.18,401.34Z" style="fill:#263238"></path><path d="M52.92,411.39a3.89,3.89,0,0,1,.5-1.67c.38-.87.77-1.54.88-1.5a3.89,3.89,0,0,1-.5,1.67C53.42,410.76,53,411.43,52.92,411.39Z" style="fill:#263238"></path><path d="M48.63,414.14a4.23,4.23,0,0,1-1.6-.35c-.85-.27-1.53-.51-1.51-.62a3,3,0,0,1,1.63.23C48,413.67,48.67,414,48.63,414.14Z" style="fill:#263238"></path><path d="M51.1,422.33c.07.09-.41.54-1.06,1s-1.23.77-1.29.68.41-.54,1.06-1S51,422.24,51.1,422.33Z" style="fill:#263238"></path><path d="M53.09,430.49c0,.11-.56.35-1.31.53s-1.38.24-1.41.13.56-.34,1.31-.52S53.06,430.38,53.09,430.49Z" style="fill:#263238"></path><path d="M63.87,410.44c.06.09-.45.49-1.18.77s-1.37.3-1.39.19.56-.31,1.25-.58S63.81,410.34,63.87,410.44Z" style="fill:#263238"></path><path d="M65.41,423.14c0,.1-.65-.08-1.33-.4s-1.21-.67-1.17-.77.65.08,1.34.4S65.46,423,65.41,423.14Z" style="fill:#263238"></path><path d="M68.13,432.23a4.18,4.18,0,0,1-1.76-.47,4.36,4.36,0,0,1-1.62-.85,4.24,4.24,0,0,1,1.77.47A4.37,4.37,0,0,1,68.13,432.23Z" style="fill:#263238"></path><path d="M53.52,439.35c-.05-.1.67-.59,1.51-1.25s1.49-1.25,1.58-1.17-.45.81-1.33,1.49A3.56,3.56,0,0,1,53.52,439.35Z" style="fill:#263238"></path><path d="M60.71,434.73c-.11,0-.27-.6-.55-1.31s-.56-1.27-.47-1.33.56.42.85,1.19S60.82,434.72,60.71,434.73Z" style="fill:#263238"></path><path d="M58.81,423.8c-.07.09-.53-.13-1-.5s-.87-.73-.8-.82.53.13,1,.49S58.87,423.71,58.81,423.8Z" style="fill:#263238"></path><path d="M75.56,406.66c.07.09-.38.54-1,1s-1.18.76-1.25.67.39-.53,1-1S75.5,406.57,75.56,406.66Z" style="fill:#263238"></path><path d="M78.09,413.57c0,.11-.7.26-1.58.16s-1.53-.39-1.5-.49.71,0,1.55.08S78.08,413.45,78.09,413.57Z" style="fill:#263238"></path><path d="M67.23,415.12c0,.1-.63.34-1.48.39a2.5,2.5,0,0,1-1.51-.19c0-.12.67-.16,1.49-.21S67.21,415,67.23,415.12Z" style="fill:#263238"></path><path d="M68.17,408.59c0,.11-.68.12-1.4-.21s-1.15-.85-1.07-.92.58.25,1.24.55S68.18,408.47,68.17,408.59Z" style="fill:#263238"></path><path d="M79,421c-.06.09-.74-.23-1.52-.71s-1.35-1-1.29-1.06.73.22,1.51.71S79.08,420.88,79,421Z" style="fill:#263238"></path><rect x="47.59" y="440.35" width="57.91" height="10.26" style="fill:#6C5DAE"></rect><polygon points="51.92 448.58 58.96 479.25 93.47 479.25 101.18 448.58 51.92 448.58" style="fill:#6C5DAE"></polygon><path d="M105.47,450.63c0,.11-13.06.2-29.17.2s-29.18-.09-29.18-.2,13.06-.21,29.18-.21S105.47,450.52,105.47,450.63Z" style="fill:#263238"></path><path d="M73.27,415.34c-.1.06-.49-.4-.89-1s-.63-1.19-.54-1.25.49.41.89,1S73.36,415.28,73.27,415.34Z" style="fill:#263238"></path><path d="M73.29,423.6c-.11,0,0-.74.3-1.56s.58-1.47.69-1.43,0,.73-.3,1.56S73.39,423.63,73.29,423.6Z" style="fill:#263238"></path><path d="M76.11,432.27c-.1.05-.53-.65-1-1.55a4.31,4.31,0,0,1-.6-1.72c.1-.05.53.64,1,1.54S76.22,432.22,76.11,432.27Z" style="fill:#263238"></path><path d="M70,439.24c-.09-.07.26-.61.77-1.2s1-1,1.08-.93-.26.61-.77,1.2S70.08,439.32,70,439.24Z" style="fill:#263238"></path><path d="M68.71,426.58c0,.11-.57.1-1.24,0s-1.19-.31-1.17-.42.57-.1,1.24,0S68.73,426.47,68.71,426.58Z" style="fill:#263238"></path><polygon points="168.19 284.32 171.59 306.69 191.36 306.69 195.95 284.65 168.19 284.32" style="fill:#6C5DAE"></polygon><path d="M193.19,298.66c0,.06-5.07.11-11.32.11s-11.32,0-11.32-.11,5.07-.12,11.32-.12S193.19,298.59,193.19,298.66Z" style="fill:#fafafa"></path><path d="M193.26,297.56c0,.06-5.1.11-11.39.11s-11.39-.05-11.39-.11,5.1-.12,11.39-.12S193.26,297.49,193.26,297.56Z" style="fill:#fafafa"></path><path d="M193.23,296.32c0,.06-5.11.11-11.4.11s-11.39-.05-11.39-.11,5.1-.12,11.39-.12S193.23,296.25,193.23,296.32Z" style="fill:#fafafa"></path><path d="M173.86,305.41a19,19,0,0,1-.61-2.81,16.8,16.8,0,0,1-.37-2.86,37.36,37.36,0,0,1,1,5.67Z" style="fill:#fafafa"></path><path d="M175.21,305.18a19.62,19.62,0,0,1-.25-2.75,23.84,23.84,0,0,1-.13-2.76,22.43,22.43,0,0,1,.38,5.51Z" style="fill:#fafafa"></path><path d="M177.66,305.18a22.07,22.07,0,0,1-.67-5.68,22.6,22.6,0,0,1,.38,2.83A24.8,24.8,0,0,1,177.66,305.18Z" style="fill:#fafafa"></path><path d="M179.38,305.29a13.78,13.78,0,0,1-.28-2.86,14.29,14.29,0,0,1,.09-2.87,24.48,24.48,0,0,1,.15,2.86A25.88,25.88,0,0,1,179.38,305.29Z" style="fill:#fafafa"></path><path d="M182.42,305.18a17.2,17.2,0,0,1-.2-2.72,16.93,16.93,0,0,1,0-2.72,16.13,16.13,0,0,1,.21,2.71A15.21,15.21,0,0,1,182.42,305.18Z" style="fill:#fafafa"></path><path d="M184.65,305.29a16.82,16.82,0,0,1-.09-2.81,15.76,15.76,0,0,1,.14-2.8,18.21,18.21,0,0,1,.09,2.81A17,17,0,0,1,184.65,305.29Z" style="fill:#fafafa"></path><path d="M186.74,305a17.55,17.55,0,0,1,.17-2.94,19.21,19.21,0,0,1,.39-2.92,18.18,18.18,0,0,1-.16,2.94A19.94,19.94,0,0,1,186.74,305Z" style="fill:#fafafa"></path><path d="M189.43,304.7a9.9,9.9,0,0,1,.33-2.5,10.53,10.53,0,0,1,.73-2.41,19.89,19.89,0,0,1-.5,2.46A24.47,24.47,0,0,1,189.43,304.7Z" style="fill:#fafafa"></path><path d="M165.92,279.89v4.19a1.64,1.64,0,0,0,1.64,1.65H196.2a1.65,1.65,0,0,0,1.65-1.65v-4.19Z" style="fill:#6C5DAE"></path><g style="opacity:0.4"><polygon points="168.4 285.73 168.64 287.06 195.06 288.94 195.73 285.73 168.4 285.73"></polygon></g><path d="M176.3,279.88c-4.21-2.44-6.46-8.11-6.62-12.76s1.76-9.49,5.57-12.15a12.77,12.77,0,0,1,13.85-.11,14.41,14.41,0,0,1,6.35,12.51,16.59,16.59,0,0,1-6.8,12.46" style="fill:#455a64"></path><path d="M183,280.33a4.77,4.77,0,0,1-.08-1.06c0-.76-.05-1.73-.08-2.9-.06-2.44-.16-5.82-.32-9.55s-.37-7.1-.52-9.54c-.07-1.17-.13-2.14-.17-2.9a5,5,0,0,1,0-1.06,4.92,4.92,0,0,1,.17,1.05c.08.68.18,1.66.3,2.88.22,2.44.46,5.82.63,9.55s.22,7.12.21,9.57c0,1.22,0,2.21,0,2.9A5.31,5.31,0,0,1,183,280.33Z" style="fill:#fff"></path><path d="M170.92,266.07c0,.11-.68.14-1.5.08s-1.47-.21-1.46-.32.68-.14,1.49-.08S170.93,266,170.92,266.07Z" style="fill:#263238"></path><path d="M171.15,261.9c0,.1-.62-.06-1.29-.35s-1.18-.62-1.14-.72.63.06,1.3.36S171.19,261.8,171.15,261.9Z" style="fill:#263238"></path><path d="M173.29,258.81c0,.09-.7-.22-1.38-.78s-1.1-1.14-1-1.21.62.37,1.27.91S173.35,258.72,173.29,258.81Z" style="fill:#263238"></path><path d="M175.45,255.89c-.1.05-.41-.44-.7-1.09s-.43-1.2-.33-1.24.41.44.7,1.08S175.55,255.85,175.45,255.89Z" style="fill:#263238"></path><path d="M178.83,253.82c-.09.05-.43-.47-.65-1.19s-.24-1.34-.14-1.36.3.55.52,1.24S178.93,253.78,178.83,253.82Z" style="fill:#263238"></path><path d="M184.48,251.49c.1,0,0,.48-.14,1s-.41.89-.51.85,0-.47.14-1S184.38,251.45,184.48,251.49Z" style="fill:#263238"></path><path d="M188.67,253.28c.07.08-.2.45-.6.83s-.8.61-.87.53.19-.45.6-.82S188.59,253.2,188.67,253.28Z" style="fill:#263238"></path><path d="M192.35,255.66c.07.09-.26.42-.73.74s-.89.5-1,.41.27-.42.73-.74S192.29,255.57,192.35,255.66Z" style="fill:#263238"></path><path d="M195,259.21c0,.1-.47.42-1.15.71s-1.27.44-1.31.34.47-.41,1.15-.7S194.93,259.11,195,259.21Z" style="fill:#263238"></path><path d="M196,263.09c0,.1-.51.26-1.17.34s-1.21.06-1.22-.05.51-.26,1.17-.34S196,263,196,263.09Z" style="fill:#263238"></path><path d="M196.54,267.85c0,.1-.6-.05-1.25-.33s-1.14-.59-1.09-.69.6.05,1.25.33S196.58,267.75,196.54,267.85Z" style="fill:#263238"></path><path d="M196.07,271.94c0,.1-.75-.07-1.48-.55s-1.18-1.07-1.11-1.14.62.35,1.32.81S196.11,271.83,196.07,271.94Z" style="fill:#263238"></path><path d="M193.94,275.66c-.07.09-.63-.24-1.17-.83s-.83-1.17-.74-1.22.51.4,1,.95S194,275.58,193.94,275.66Z" style="fill:#263238"></path><path d="M173.72,276.1c.05.1-.54.5-1.32.91s-1.45.66-1.5.56.54-.5,1.32-.91S173.67,276,173.72,276.1Z" style="fill:#263238"></path><path d="M171.87,272.73c0,.1-.43.41-1.06.7s-1.17.44-1.22.34.43-.41,1.06-.7S171.83,272.63,171.87,272.73Z" style="fill:#263238"></path><path d="M170.52,269.75c0,.11-.57.28-1.31.38s-1.34.11-1.36,0,.57-.28,1.31-.39S170.5,269.64,170.52,269.75Z" style="fill:#263238"></path><path d="M175,268.11c0,.1-.54.36-1.3.45s-1.37-.05-1.36-.15.6-.16,1.32-.24S174.94,268,175,268.11Z" style="fill:#263238"></path><path d="M178.67,264.43c0,.1-.42.33-1,.39s-1.1-.08-1.09-.18.48-.16,1-.22S178.64,264.32,178.67,264.43Z" style="fill:#263238"></path><path d="M179.37,261.48c0,.1-.52,0-1.09-.17s-1-.44-1-.54.53,0,1.1.17S179.41,261.38,179.37,261.48Z" style="fill:#263238"></path><path d="M180.73,258.5c-.07.07-.41-.15-.65-.57s-.27-.82-.16-.85.28.28.5.65S180.81,258.42,180.73,258.5Z" style="fill:#263238"></path><path d="M179.1,270.7c0,.11-.4.3-.95.44a3.6,3.6,0,0,1-.8.12l-.08-.23c.14,0,.24,0,.25,0s0,.11-.15.2l-.08-.23a3.31,3.31,0,0,1,.76-.26C178.6,270.62,179.07,270.6,179.1,270.7Z" style="fill:#263238"></path><path d="M179.86,275.93c0,.1-.5.41-1.21.69s-1.32.42-1.36.32.51-.41,1.21-.69S179.82,275.83,179.86,275.93Z" style="fill:#263238"></path><path d="M175.68,273.61c0,.1-.33.32-.81.48s-.9.21-.93.11.33-.32.81-.48S175.64,273.51,175.68,273.61Z" style="fill:#263238"></path><path d="M176,263c0,.1-.65,0-1.38-.22s-1.26-.6-1.21-.7.63.08,1.34.33S176,262.86,176,263Z" style="fill:#263238"></path><path d="M186.11,261.81c.06.09-.29.43-.79.76s-.95.52-1,.43.3-.43.79-.76S186.05,261.72,186.11,261.81Z" style="fill:#263238"></path><path d="M186.66,267.06c0,.11-.35.28-.83.37s-.89.1-.91,0,.35-.27.83-.37S186.64,267,186.66,267.06Z" style="fill:#263238"></path><path d="M187.3,273c-.05.1-.58,0-1.2-.33s-1.07-.6-1-.7.58.05,1.2.34S187.34,272.86,187.3,273Z" style="fill:#263238"></path><path d="M186,278.71c-.09.07-.44-.22-.78-.64s-.56-.81-.47-.88.43.21.77.63S186,278.64,186,278.71Z" style="fill:#263238"></path><path d="M185.67,258c.07.08-.16.37-.56.57s-.76.21-.79.1.26-.28.62-.45S185.6,257.86,185.67,258Z" style="fill:#263238"></path><path d="M190.63,263.24c0,.1-.43.35-1,.44s-1.14,0-1.13-.14.49-.17,1.07-.25S190.59,263.14,190.63,263.24Z" style="fill:#263238"></path><path d="M189.64,258.49c.05.09-.41.42-1.06.62s-1.2.21-1.22.11.49-.28,1.1-.48S189.59,258.39,189.64,258.49Z" style="fill:#263238"></path><path d="M191.71,270.6a2.91,2.91,0,0,1-1.72,0,2.94,2.94,0,0,1-1.61-.6,4.93,4.93,0,0,1,1.68.22A5.31,5.31,0,0,1,191.71,270.6Z" style="fill:#263238"></path><path d="M189.87,277.51c-.07.08-.64-.26-1.21-.83s-.91-1.15-.83-1.22.55.38,1.1.94S189.93,277.42,189.87,277.51Z" style="fill:#263238"></path><path d="M181.77,252.87a18.59,18.59,0,0,0-3.46,2.73,16.88,16.88,0,0,0-4.3,9.52,21.42,21.42,0,0,0,.26,5.83,44.44,44.44,0,0,0,1.09,4.68c.38,1.32.73,2.37,1,3.1a7.53,7.53,0,0,1,.33,1.15,6.88,6.88,0,0,1-.48-1.1c-.27-.71-.66-1.76-1.08-3.07a39.59,39.59,0,0,1-1.18-4.7,20.57,20.57,0,0,1-.29-5.94,16.6,16.6,0,0,1,4.49-9.66,12.53,12.53,0,0,1,2.58-2c.33-.2.61-.31.79-.41A1.06,1.06,0,0,1,181.77,252.87Z" style="fill:#fff"></path><path d="M187.15,280.13a44.88,44.88,0,0,0,1.77-4.23A24,24,0,0,0,190,265a20.58,20.58,0,0,0-1.68-5.8,13.84,13.84,0,0,0-2.86-4,10.56,10.56,0,0,0-2.81-1.77c-.73-.31-1.17-.38-1.16-.41s.11,0,.32,0a6.56,6.56,0,0,1,.9.24,10,10,0,0,1,2.93,1.71,13.6,13.6,0,0,1,3,4,20.21,20.21,0,0,1,1.74,5.91,23.12,23.12,0,0,1-1.19,11c-.22.68-.51,1.27-.72,1.79s-.46,1-.66,1.3A7.67,7.67,0,0,1,187.15,280.13Z" style="fill:#fff"></path></g><g id="freepik--speech-bubble--inject-188"><path d="M481.89,140.72l-7.09-12.5a33.46,33.46,0,1,0-8,8.93h0Z" style="fill:#fafafa"></path><path d="M481.89,140.72l-15.15-3.43a.13.13,0,0,1-.1-.16s0,0,0,0h0l.18.18A33.47,33.47,0,0,1,450.8,144a29.74,29.74,0,0,1-5.3.27c-.91-.05-1.84-.07-2.78-.15l-2.82-.43A33.76,33.76,0,0,1,419,130.29a33.28,33.28,0,0,1-5.66-12.93,34,34,0,0,1,.39-14.9,33,33,0,0,1,7.18-13.78,33.68,33.68,0,0,1,12.9-9.21,34.22,34.22,0,0,1,15-2.3,32.92,32.92,0,0,1,13.77,4.07,33.91,33.91,0,0,1,15.89,19.56,35.86,35.86,0,0,1,1.45,10.89,33.31,33.31,0,0,1-5,16.6v-.13l7,12.56-7.2-12.43a.15.15,0,0,1,0-.13,33.14,33.14,0,0,0,4.86-16.48,35.65,35.65,0,0,0-1.48-10.76,33.54,33.54,0,0,0-15.73-19.26,32.48,32.48,0,0,0-13.58-4A33.76,33.76,0,0,0,434,80,33,33,0,0,0,421.27,89a32.5,32.5,0,0,0-7.07,13.55,33.77,33.77,0,0,0-.4,14.68A32.86,32.86,0,0,0,419.36,130,33.47,33.47,0,0,0,440,143.32l2.8.43c.92.08,1.84.11,2.74.16a31.12,31.12,0,0,0,5.24-.24A33.34,33.34,0,0,0,466.7,137a.13.13,0,0,1,.18,0,.11.11,0,0,1,0,.15v0l-.07-.21Z" style="fill:#263238"></path><path d="M439.82,113.1c0,2.17-1.72,3.42-5,3.42h-6.49V104h6.13c3.14,0,4.75,1.31,4.75,3.27a3,3,0,0,1-1.67,2.76A3.1,3.1,0,0,1,439.82,113.1Zm-8.63-6.94v3h2.89c1.42,0,2.19-.5,2.19-1.49s-.77-1.47-2.19-1.47Zm5.7,6.63c0-1.05-.8-1.56-2.31-1.56h-3.39v3.11h3.39C436.09,114.34,436.89,113.87,436.89,112.79Z" style="fill:#263238"></path><path d="M451.4,106.88,447,117.12c-.93,2.33-2.26,3-4,3a4.34,4.34,0,0,1-2.69-.88l1-2a2.51,2.51,0,0,0,1.57.61c.78,0,1.21-.34,1.58-1.21l0-.08-4.18-9.72h2.89l2.7,6.54,2.73-6.54Z" style="fill:#263238"></path><path d="M461.67,112.49h-7.3a2.59,2.59,0,0,0,2.77,1.94,3.28,3.28,0,0,0,2.42-.94l1.48,1.62a5,5,0,0,1-4,1.56c-3.33,0-5.5-2.1-5.5-5a4.92,4.92,0,0,1,5.15-5,4.78,4.78,0,0,1,5,5C461.73,112,461.69,112.26,461.67,112.49Zm-7.33-1.63h4.75a2.41,2.41,0,0,0-4.75,0Z" style="fill:#263238"></path><path d="M463.18,115a1.72,1.72,0,0,1,3.44,0,1.72,1.72,0,0,1-3.44,0Zm.05-11.07h3.34l-.56,8.2h-2.22Z" style="fill:#263238"></path></g></svg>
