<svg xmlns="http://www.w3.org/2000/svg" width="24" height="24" viewBox="0 0 24 24" fill="none">
<path d="M15.7502 12.0004C15.7502 12.7421 15.5303 13.4671 15.1182 14.0838C14.7062 14.7004 14.1205 15.1811 13.4353 15.4649C12.7501 15.7488 11.9961 15.823 11.2686 15.6783C10.5412 15.5336 9.87303 15.1765 9.34858 14.652C8.82414 14.1276 8.46698 13.4594 8.32229 12.732C8.17759 12.0045 8.25186 11.2505 8.53568 10.5653C8.81951 9.88009 9.30016 9.29442 9.91685 8.88237C10.5335 8.47031 11.2586 8.25038 12.0002 8.25038C12.9948 8.25038 13.9486 8.64547 14.6519 9.34873C15.3551 10.052 15.7502 11.0058 15.7502 12.0004ZM19.5002 12.0004C19.5025 10.1552 18.8223 8.37447 17.5905 7.00069C17.5254 6.92551 17.4459 6.86405 17.3567 6.81989C17.2676 6.77573 17.1705 6.74975 17.0712 6.74346C16.9719 6.73717 16.8724 6.75071 16.7784 6.78327C16.6844 6.81584 16.5978 6.86678 16.5236 6.93314C16.4495 6.9995 16.3893 7.07995 16.3466 7.16979C16.3038 7.25964 16.2794 7.3571 16.2747 7.45648C16.27 7.55586 16.2851 7.65519 16.3191 7.74867C16.3532 7.84216 16.4055 7.92793 16.473 8.001C17.4569 9.10103 18.0008 10.5251 18.0008 12.0008C18.0008 13.4766 17.4569 14.9007 16.473 16.0007C16.3441 16.1494 16.2788 16.3429 16.2912 16.5394C16.3037 16.7358 16.3929 16.9195 16.5395 17.0508C16.6862 17.1821 16.8786 17.2504 17.0752 17.2411C17.2719 17.2318 17.4569 17.1456 17.5905 17.001C18.8221 15.6267 19.5023 13.8457 19.5002 12.0004ZM7.52742 8.001C7.59495 7.92793 7.64727 7.84216 7.68132 7.74867C7.71538 7.65519 7.73049 7.55586 7.72578 7.45648C7.72108 7.3571 7.69664 7.25964 7.6539 7.16979C7.61116 7.07995 7.55098 6.9995 7.47684 6.93314C7.40271 6.86678 7.31611 6.81584 7.2221 6.78327C7.12809 6.75071 7.02853 6.73717 6.92923 6.74346C6.82994 6.74975 6.73289 6.77573 6.64373 6.81989C6.55457 6.86405 6.47509 6.92551 6.40992 7.00069C5.17879 8.3752 4.49803 10.1556 4.49803 12.0008C4.49803 13.8461 5.17879 15.6265 6.40992 17.001C6.54353 17.1456 6.72861 17.2318 6.92523 17.2411C7.12186 17.2504 7.31427 17.1821 7.46094 17.0508C7.60761 16.9195 7.69678 16.7358 7.70922 16.5394C7.72166 16.3429 7.65636 16.1494 7.52742 16.0007C6.54263 14.9011 5.99809 13.4769 5.99809 12.0008C5.99809 10.5248 6.54263 9.10056 7.52742 8.001ZM22.3662 7.626C21.8173 6.32245 21.0265 5.13464 20.0355 4.12538C19.9672 4.05235 19.885 3.99372 19.7937 3.95294C19.7025 3.91215 19.6039 3.89003 19.504 3.88787C19.404 3.88571 19.3046 3.90357 19.2117 3.94038C19.1187 3.97719 19.034 4.03222 18.9626 4.10223C18.8913 4.17224 18.8346 4.25582 18.796 4.34805C18.7574 4.44028 18.7376 4.5393 18.7378 4.63928C18.738 4.73927 18.7582 4.8382 18.7972 4.93027C18.8362 5.02233 18.8932 5.10567 18.9649 5.17538C20.7525 6.9966 21.7539 9.44659 21.7539 11.9985C21.7539 14.5504 20.7525 17.0004 18.9649 18.8216C18.8957 18.8919 18.8411 18.9752 18.804 19.0666C18.767 19.158 18.7484 19.2558 18.7492 19.3545C18.7499 19.4531 18.7701 19.5506 18.8086 19.6414C18.8471 19.7323 18.9031 19.8146 18.9734 19.8838C19.0437 19.953 19.1269 20.0077 19.2183 20.0447C19.3097 20.0817 19.4076 20.1004 19.5062 20.0996C19.6048 20.0988 19.7023 20.0786 19.7932 20.0401C19.884 20.0017 19.9664 19.9457 20.0355 19.8754C21.5883 18.2898 22.6378 16.2807 23.0525 14.1005C23.4671 11.9203 23.2284 9.66624 22.3662 7.62132V7.626ZM3.01617 15.7954C2.26677 14.0239 2.05864 12.0702 2.41801 10.1805C2.77738 8.29091 3.68817 6.54999 5.03555 5.17725C5.17503 5.03528 5.25241 4.84371 5.25065 4.64469C5.24889 4.44566 5.16814 4.25549 5.02617 4.116C4.8842 3.97652 4.69263 3.89914 4.4936 3.9009C4.29458 3.90266 4.10441 3.9834 3.96492 4.12538C1.90072 6.22681 0.744141 9.05471 0.744141 12.0004C0.744141 14.946 1.90072 17.7739 3.96492 19.8754C4.03322 19.9484 4.11543 20.007 4.20672 20.0478C4.29801 20.0886 4.39653 20.1107 4.4965 20.1129C4.59646 20.115 4.69584 20.0972 4.78881 20.0604C4.88177 20.0236 4.96643 19.9685 5.03782 19.8985C5.1092 19.8285 5.16587 19.7449 5.20448 19.6527C5.2431 19.5605 5.26288 19.4615 5.26267 19.3615C5.26246 19.2615 5.24226 19.1626 5.20325 19.0705C5.16425 18.9784 5.10723 18.8951 5.03555 18.8254C4.17744 17.9517 3.49228 16.9236 3.01617 15.7954Z" fill="#D92D20"/>
</svg>
